<?xml version="1.0" encoding="UTF-8"?>
<!--Generator: Apple Native CoreSVG 129-->
<!DOCTYPE svg
PUBLIC "-//W3C//DTD SVG 1.1//EN"
       "http://www.w3.org/Graphics/SVG/1.1/DTD/svg11.dtd">
<svg version="1.1" xmlns="http://www.w3.org/2000/svg" xmlns:xlink="http://www.w3.org/1999/xlink" width="3300" height="2200">
 <!--glyph: "uni100B12.medium", point size: 100.000000, font version: "Version 16.0d9e1", template writer version: "8"-->
 <g id="Notes">
  <rect height="2200" id="artboard" style="fill:white;opacity:1" width="3300" x="0" y="0"/>
  <line id="" style="fill:none;stroke:black;opacity:1;stroke-width:0.5;" x1="263" x2="3036" y1="292" y2="292"/>
  <text style="stroke:none;fill:black;font-family:-apple-system,&quot;SF Pro Display&quot;,&quot;SF Pro Text&quot;,Helvetica,sans-serif;font-weight:bold;" transform="matrix(1 0 0 1 263 322)">Weight/Scale Variations</text>
  <text style="stroke:none;fill:black;font-family:-apple-system,&quot;SF Pro Display&quot;,&quot;SF Pro Text&quot;,Helvetica,sans-serif;text-anchor:middle;" transform="matrix(1 0 0 1 559.711 322)">Ultralight</text>
  <text style="stroke:none;fill:black;font-family:-apple-system,&quot;SF Pro Display&quot;,&quot;SF Pro Text&quot;,Helvetica,sans-serif;text-anchor:middle;" transform="matrix(1 0 0 1 856.422 322)">Thin</text>
  <text style="stroke:none;fill:black;font-family:-apple-system,&quot;SF Pro Display&quot;,&quot;SF Pro Text&quot;,Helvetica,sans-serif;text-anchor:middle;" transform="matrix(1 0 0 1 1153.13 322)">Light</text>
  <text style="stroke:none;fill:black;font-family:-apple-system,&quot;SF Pro Display&quot;,&quot;SF Pro Text&quot;,Helvetica,sans-serif;text-anchor:middle;" transform="matrix(1 0 0 1 1449.84 322)">Regular</text>
  <text style="stroke:none;fill:black;font-family:-apple-system,&quot;SF Pro Display&quot;,&quot;SF Pro Text&quot;,Helvetica,sans-serif;text-anchor:middle;" transform="matrix(1 0 0 1 1746.56 322)">Medium</text>
  <text style="stroke:none;fill:black;font-family:-apple-system,&quot;SF Pro Display&quot;,&quot;SF Pro Text&quot;,Helvetica,sans-serif;text-anchor:middle;" transform="matrix(1 0 0 1 2043.27 322)">Semibold</text>
  <text style="stroke:none;fill:black;font-family:-apple-system,&quot;SF Pro Display&quot;,&quot;SF Pro Text&quot;,Helvetica,sans-serif;text-anchor:middle;" transform="matrix(1 0 0 1 2339.98 322)">Bold</text>
  <text style="stroke:none;fill:black;font-family:-apple-system,&quot;SF Pro Display&quot;,&quot;SF Pro Text&quot;,Helvetica,sans-serif;text-anchor:middle;" transform="matrix(1 0 0 1 2636.69 322)">Heavy</text>
  <text style="stroke:none;fill:black;font-family:-apple-system,&quot;SF Pro Display&quot;,&quot;SF Pro Text&quot;,Helvetica,sans-serif;text-anchor:middle;" transform="matrix(1 0 0 1 2933.4 322)">Black</text>
  <line id="" style="fill:none;stroke:black;opacity:1;stroke-width:0.5;" x1="263" x2="3036" y1="1903" y2="1903"/>
  <g id="" transform="matrix(1 0 0 1 263 1933)">
   <path d="M 9.24805 0.830078 C 13.5547 0.830078 17.1387 -2.74414 17.1387 -7.05078 C 17.1387 -11.3574 13.5449 -14.9316 9.23828 -14.9316 C 4.94141 -14.9316 1.36719 -11.3574 1.36719 -7.05078 C 1.36719 -2.74414 4.95117 0.830078 9.24805 0.830078 Z M 9.24805 -0.654297 C 5.70312 -0.654297 2.87109 -3.49609 2.87109 -7.05078 C 2.87109 -10.6055 5.69336 -13.4473 9.23828 -13.4473 C 12.793 -13.4473 15.6348 -10.6055 15.6445 -7.05078 C 15.6543 -3.49609 12.8027 -0.654297 9.24805 -0.654297 Z M 9.22852 -3.62305 C 9.69727 -3.62305 9.9707 -3.93555 9.9707 -4.45312 L 9.9707 -6.31836 L 12.002 -6.31836 C 12.5 -6.31836 12.832 -6.57227 12.832 -7.04102 C 12.832 -7.51953 12.5195 -7.7832 12.002 -7.7832 L 9.9707 -7.7832 L 9.9707 -9.81445 C 9.9707 -10.332 9.69727 -10.6543 9.22852 -10.6543 C 8.75977 -10.6543 8.50586 -10.3125 8.50586 -9.81445 L 8.50586 -7.7832 L 6.49414 -7.7832 C 5.97656 -7.7832 5.64453 -7.51953 5.64453 -7.04102 C 5.64453 -6.57227 5.99609 -6.31836 6.49414 -6.31836 L 8.50586 -6.31836 L 8.50586 -4.45312 C 8.50586 -3.95508 8.75977 -3.62305 9.22852 -3.62305 Z"/>
  </g>
  <g id="" transform="matrix(1 0 0 1 281.506 1933)">
   <path d="M 11.709 2.91016 C 17.1582 2.91016 21.6699 -1.61133 21.6699 -7.05078 C 21.6699 -12.5 17.1484 -17.0117 11.6992 -17.0117 C 6.25977 -17.0117 1.74805 -12.5 1.74805 -7.05078 C 1.74805 -1.61133 6.26953 2.91016 11.709 2.91016 Z M 11.709 1.25 C 7.09961 1.25 3.41797 -2.44141 3.41797 -7.05078 C 3.41797 -11.6602 7.08984 -15.3516 11.6992 -15.3516 C 16.3086 -15.3516 20 -11.6602 20.0098 -7.05078 C 20.0195 -2.44141 16.3184 1.25 11.709 1.25 Z M 11.6797 -2.66602 C 12.207 -2.66602 12.5098 -3.01758 12.5098 -3.59375 L 12.5098 -6.23047 L 15.3223 -6.23047 C 15.8691 -6.23047 16.25 -6.51367 16.25 -7.03125 C 16.25 -7.55859 15.8887 -7.86133 15.3223 -7.86133 L 12.5098 -7.86133 L 12.5098 -10.6836 C 12.5098 -11.25 12.207 -11.6113 11.6797 -11.6113 C 11.1621 -11.6113 10.8789 -11.2305 10.8789 -10.6836 L 10.8789 -7.86133 L 8.07617 -7.86133 C 7.50977 -7.86133 7.13867 -7.55859 7.13867 -7.03125 C 7.13867 -6.51367 7.5293 -6.23047 8.07617 -6.23047 L 10.8789 -6.23047 L 10.8789 -3.59375 C 10.8789 -3.03711 11.1621 -2.66602 11.6797 -2.66602 Z"/>
  </g>
  <g id="" transform="matrix(1 0 0 1 304.924 1933)">
   <path d="M 14.9707 5.66406 C 21.9336 5.66406 27.6953 -0.0976562 27.6953 -7.05078 C 27.6953 -14.0137 21.9238 -19.7754 14.9609 -19.7754 C 8.00781 -19.7754 2.25586 -14.0137 2.25586 -7.05078 C 2.25586 -0.0976562 8.01758 5.66406 14.9707 5.66406 Z M 14.9707 3.84766 C 8.93555 3.84766 4.08203 -1.01562 4.08203 -7.05078 C 4.08203 -13.0957 8.92578 -17.9492 14.9609 -17.9492 C 21.0059 -17.9492 25.8594 -13.0957 25.8691 -7.05078 C 25.8789 -1.01562 21.0156 3.84766 14.9707 3.84766 Z M 14.9414 -1.38672 C 15.5176 -1.38672 15.8594 -1.77734 15.8594 -2.38281 L 15.8594 -6.13281 L 19.7754 -6.13281 C 20.3711 -6.13281 20.7812 -6.46484 20.7812 -7.02148 C 20.7812 -7.59766 20.3906 -7.93945 19.7754 -7.93945 L 15.8594 -7.93945 L 15.8594 -11.8652 C 15.8594 -12.4805 15.5176 -12.8711 14.9414 -12.8711 C 14.375 -12.8711 14.0527 -12.4609 14.0527 -11.8652 L 14.0527 -7.93945 L 10.1465 -7.93945 C 9.53125 -7.93945 9.13086 -7.59766 9.13086 -7.02148 C 9.13086 -6.46484 9.55078 -6.13281 10.1465 -6.13281 L 14.0527 -6.13281 L 14.0527 -2.38281 C 14.0527 -1.79688 14.375 -1.38672 14.9414 -1.38672 Z"/>
  </g>
  <text style="stroke:none;fill:black;font-family:-apple-system,&quot;SF Pro Display&quot;,&quot;SF Pro Text&quot;,Helvetica,sans-serif;font-weight:bold;" transform="matrix(1 0 0 1 263 1953)">Design Variations</text>
  <text style="stroke:none;fill:black;font-family:-apple-system,&quot;SF Pro Display&quot;,&quot;SF Pro Text&quot;,Helvetica,sans-serif;" transform="matrix(1 0 0 1 263 1971)">Symbols are supported in up to nine weights and three scales.</text>
  <text style="stroke:none;fill:black;font-family:-apple-system,&quot;SF Pro Display&quot;,&quot;SF Pro Text&quot;,Helvetica,sans-serif;" transform="matrix(1 0 0 1 263 1989)">For optimal layout with text and other symbols, vertically align</text>
  <text style="stroke:none;fill:black;font-family:-apple-system,&quot;SF Pro Display&quot;,&quot;SF Pro Text&quot;,Helvetica,sans-serif;" transform="matrix(1 0 0 1 263 2007)">symbols with the adjacent text.</text>
  <line id="" style="fill:none;stroke:#00AEEF;stroke-width:0.5;opacity:1.0;" x1="776" x2="776" y1="1919" y2="1933"/>
  <g id="" transform="matrix(1 0 0 1 776 1933)">
   <path d="M 3.31055 0.126953 C 3.82812 0.126953 4.08203 -0.0683594 4.26758 -0.605469 L 5.52734 -4.0625 L 11.2891 -4.0625 L 12.5488 -0.605469 C 12.7344 -0.0683594 12.9883 0.126953 13.4961 0.126953 C 14.0137 0.126953 14.3457 -0.185547 14.3457 -0.673828 C 14.3457 -0.839844 14.3164 -0.986328 14.2383 -1.20117 L 9.6582 -13.3887 C 9.43359 -13.9941 9.0332 -14.2871 8.4082 -14.2871 C 7.80273 -14.2871 7.39258 -13.9941 7.17773 -13.3984 L 2.59766 -1.19141 C 2.51953 -0.976562 2.49023 -0.830078 2.49023 -0.664062 C 2.49023 -0.175781 2.80273 0.126953 3.31055 0.126953 Z M 6.00586 -5.53711 L 8.37891 -12.1094 L 8.42773 -12.1094 L 10.8008 -5.53711 Z"/>
  </g>
  <line id="" style="fill:none;stroke:#00AEEF;stroke-width:0.5;opacity:1.0;" x1="792.836" x2="792.836" y1="1919" y2="1933"/>
  <text style="stroke:none;fill:black;font-family:-apple-system,&quot;SF Pro Display&quot;,&quot;SF Pro Text&quot;,Helvetica,sans-serif;font-weight:bold;" transform="matrix(1 0 0 1 776 1953)">Margins</text>
  <text style="stroke:none;fill:black;font-family:-apple-system,&quot;SF Pro Display&quot;,&quot;SF Pro Text&quot;,Helvetica,sans-serif;" transform="matrix(1 0 0 1 776 1971)">Leading and trailing margins on the left and right side of each symbol</text>
  <text style="stroke:none;fill:black;font-family:-apple-system,&quot;SF Pro Display&quot;,&quot;SF Pro Text&quot;,Helvetica,sans-serif;" transform="matrix(1 0 0 1 776 1989)">can be adjusted by modifying the x-location of the margin guidelines.</text>
  <text style="stroke:none;fill:black;font-family:-apple-system,&quot;SF Pro Display&quot;,&quot;SF Pro Text&quot;,Helvetica,sans-serif;" transform="matrix(1 0 0 1 776 2007)">Modifications are automatically applied proportionally to all</text>
  <text style="stroke:none;fill:black;font-family:-apple-system,&quot;SF Pro Display&quot;,&quot;SF Pro Text&quot;,Helvetica,sans-serif;" transform="matrix(1 0 0 1 776 2025)">scales and weights.</text>
  <g id="" transform="matrix(1 0 0 1 1289 1933)">
   <path d="M 2.8418 1.86523 L 4.54102 3.57422 C 5.40039 4.44336 6.38672 4.38477 7.31445 3.35938 L 17.4902 -7.85156 C 17.7539 -7.76367 18.0273 -7.7832 18.3398 -7.8418 L 19.4043 -8.03711 L 20.0684 -7.36328 L 20.0293 -6.80664 C 19.9902 -6.30859 20.1172 -5.92773 20.6055 -5.44922 L 21.3672 -4.70703 C 21.8457 -4.22852 22.4609 -4.19922 22.9297 -4.66797 L 25.8398 -7.58789 C 26.3086 -8.05664 26.2891 -8.65234 25.8105 -9.13086 L 25.0391 -9.89258 C 24.5605 -10.3711 24.1895 -10.5273 23.7109 -10.4883 L 23.1348 -10.4395 L 22.4902 -11.0742 L 22.7344 -12.1973 C 22.8613 -12.7637 22.7051 -13.2031 22.1191 -13.7891 L 19.9219 -15.9766 C 16.582 -19.2969 12.1484 -19.2188 9.25781 -16.3281 C 8.83789 -15.918 8.80859 -15.3418 9.04297 -14.9512 C 9.27734 -14.5898 9.73633 -14.3555 10.3809 -14.5215 C 11.8457 -14.8633 13.3691 -14.9219 14.7949 -13.9844 L 14.209 -12.5293 C 14.0137 -12.0508 13.9844 -11.6504 14.1113 -11.2891 L 3.04688 -0.898438 C 2.06055 0.0195312 1.98242 0.996094 2.8418 1.86523 Z M 10.752 -15.957 C 13.1836 -17.7344 16.4746 -17.4316 18.7012 -15.2051 L 21.1328 -12.793 C 21.3672 -12.5586 21.4062 -12.373 21.3379 -12.0312 L 21.0156 -10.5469 L 22.5195 -9.0625 L 23.5059 -9.12109 C 23.7598 -9.13086 23.8379 -9.11133 24.0332 -8.91602 L 24.6094 -8.33984 L 22.168 -5.89844 L 21.5918 -6.47461 C 21.3965 -6.66992 21.3672 -6.74805 21.377 -7.01172 L 21.4453 -7.98828 L 19.9512 -9.47266 L 18.4277 -9.21875 C 18.1055 -9.15039 17.959 -9.17969 17.7148 -9.41406 L 15.7129 -11.416 C 15.459 -11.6504 15.4297 -11.8164 15.5859 -12.1875 L 16.4648 -14.2773 C 14.9023 -15.7324 12.8711 -16.3574 10.8398 -15.7617 C 10.6836 -15.7227 10.625 -15.8496 10.752 -15.957 Z M 5.27344 2.30469 L 4.10156 1.14258 C 3.63281 0.683594 3.74023 0.341797 4.14062 -0.0195312 L 14.9512 -10.1953 L 16.416 -8.71094 L 6.42578 2.27539 C 6.07422 2.67578 5.74219 2.77344 5.27344 2.30469 Z"/>
  </g>
  <text style="stroke:none;fill:black;font-family:-apple-system,&quot;SF Pro Display&quot;,&quot;SF Pro Text&quot;,Helvetica,sans-serif;font-weight:bold;" transform="matrix(1 0 0 1 1289 1953)">Exporting</text>
  <text style="stroke:none;fill:black;font-family:-apple-system,&quot;SF Pro Display&quot;,&quot;SF Pro Text&quot;,Helvetica,sans-serif;" transform="matrix(1 0 0 1 1289 1971)">Symbols should be outlined when exporting to ensure the</text>
  <text style="stroke:none;fill:black;font-family:-apple-system,&quot;SF Pro Display&quot;,&quot;SF Pro Text&quot;,Helvetica,sans-serif;" transform="matrix(1 0 0 1 1289 1989)">design is preserved when submitting to Xcode.</text>
  <text id="template-version" style="stroke:none;fill:black;font-family:-apple-system,&quot;SF Pro Display&quot;,&quot;SF Pro Text&quot;,Helvetica,sans-serif;text-anchor:end;" transform="matrix(1 0 0 1 3036 1933)">Template v.2.0</text>
  <text style="stroke:none;fill:black;font-family:-apple-system,&quot;SF Pro Display&quot;,&quot;SF Pro Text&quot;,Helvetica,sans-serif;text-anchor:end;" transform="matrix(1 0 0 1 3036 1951)">Requires Xcode 12 or greater</text>
  <text style="stroke:none;fill:black;font-family:-apple-system,&quot;SF Pro Display&quot;,&quot;SF Pro Text&quot;,Helvetica,sans-serif;text-anchor:end;" transform="matrix(1 0 0 1 3036 1969)">Generated from books.vertical</text>
  <text style="stroke:none;fill:black;font-family:-apple-system,&quot;SF Pro Display&quot;,&quot;SF Pro Text&quot;,Helvetica,sans-serif;text-anchor:end;" transform="matrix(1 0 0 1 3036 1987)">Typeset at 100 points</text>
  <text style="stroke:none;fill:black;font-family:-apple-system,&quot;SF Pro Display&quot;,&quot;SF Pro Text&quot;,Helvetica,sans-serif;" transform="matrix(1 0 0 1 263 726)">Small</text>
  <text style="stroke:none;fill:black;font-family:-apple-system,&quot;SF Pro Display&quot;,&quot;SF Pro Text&quot;,Helvetica,sans-serif;" transform="matrix(1 0 0 1 263 1156)">Medium</text>
  <text style="stroke:none;fill:black;font-family:-apple-system,&quot;SF Pro Display&quot;,&quot;SF Pro Text&quot;,Helvetica,sans-serif;" transform="matrix(1 0 0 1 263 1586)">Large</text>
 </g>
 <g id="Guides">
  <g id="H-reference" style="fill:#27AAE1;stroke:none;" transform="matrix(1 0 0 1 339 696)">
   <path d="M 0.976562 0 L 3.66211 0 L 12.9883 -24.4629 L 45.7031 -24.4629 L 55.0781 0 L 57.7148 0 L 30.6152 -70.459 L 28.125 -70.459 Z M 29.2969 -67.1387 L 29.3945 -67.1387 L 44.873 -26.709 L 13.8672 -26.709 Z"/>
  </g>
  <line id="Baseline-S" style="fill:none;stroke:#27AAE1;opacity:1;stroke-width:0.5;" x1="263" x2="3036" y1="696" y2="696"/>
  <line id="Capline-S" style="fill:none;stroke:#27AAE1;opacity:1;stroke-width:0.5;" x1="263" x2="3036" y1="625.541" y2="625.541"/>
  <g id="H-reference" style="fill:#27AAE1;stroke:none;" transform="matrix(1 0 0 1 339 1126)">
   <path d="M 0.976562 0 L 3.66211 0 L 12.9883 -24.4629 L 45.7031 -24.4629 L 55.0781 0 L 57.7148 0 L 30.6152 -70.459 L 28.125 -70.459 Z M 29.2969 -67.1387 L 29.3945 -67.1387 L 44.873 -26.709 L 13.8672 -26.709 Z"/>
  </g>
  <line id="Baseline-M" style="fill:none;stroke:#27AAE1;opacity:1;stroke-width:0.5;" x1="263" x2="3036" y1="1126" y2="1126"/>
  <line id="Capline-M" style="fill:none;stroke:#27AAE1;opacity:1;stroke-width:0.5;" x1="263" x2="3036" y1="1055.54" y2="1055.54"/>
  <g id="H-reference" style="fill:#27AAE1;stroke:none;" transform="matrix(1 0 0 1 339 1556)">
   <path d="M 0.976562 0 L 3.66211 0 L 12.9883 -24.4629 L 45.7031 -24.4629 L 55.0781 0 L 57.7148 0 L 30.6152 -70.459 L 28.125 -70.459 Z M 29.2969 -67.1387 L 29.3945 -67.1387 L 44.873 -26.709 L 13.8672 -26.709 Z"/>
  </g>
  <line id="Baseline-L" style="fill:none;stroke:#27AAE1;opacity:1;stroke-width:0.5;" x1="263" x2="3036" y1="1556" y2="1556"/>
  <line id="Capline-L" style="fill:none;stroke:#27AAE1;opacity:1;stroke-width:0.5;" x1="263" x2="3036" y1="1485.54" y2="1485.54"/>
  <line id="left-margin" style="fill:none;stroke:#00AEEF;stroke-width:0.5;opacity:1.0;" x1="1373.7" x2="1373.7" y1="1030.79" y2="1150.12"/>
  <line id="right-margin" style="fill:none;stroke:#00AEEF;stroke-width:0.5;opacity:1.0;" x1="1525.99" x2="1525.99" y1="1030.79" y2="1150.12"/>
 </g>
 <g id="Symbols">
  <g id="Black-L" transform="matrix(1 0 0 1 2821.02 1556)">
   <path d="M 172.998 36.1328 L 190.771 34.4238 C 203.662 33.1055 209.668 25.8301 208.447 12.8906 L 200.195 -71.6309 C 198.926 -84.5703 191.602 -90.7227 178.711 -89.4043 L 160.938 -87.6953 C 158.984 -87.5 157.129 -87.1582 155.469 -86.6699 L 155.469 -87.4023 C 155.469 -100.439 148.779 -107.178 135.791 -107.178 L 116.211 -107.178 C 103.223 -107.178 96.4844 -100.439 96.4844 -87.4023 L 96.4844 -63.1836 L 67.9688 -63.1836 L 67.9688 -68.3594 C 67.9688 -81.3477 61.2793 -88.0859 48.291 -88.0859 L 35.8398 -88.0859 C 22.8027 -88.0859 16.1133 -81.3477 16.1133 -68.3594 L 16.1133 15.4785 C 16.1133 28.5156 22.8027 35.2539 35.8398 35.2539 L 135.791 35.2539 C 144.531 35.2539 150.439 32.1777 153.369 26.1719 C 156.445 33.7402 163.086 37.1582 172.998 36.1328 Z M 120.508 -87.1582 L 131.445 -87.1582 C 134.082 -87.1582 135.449 -85.7422 135.449 -83.2031 L 135.449 11.2305 C 135.449 13.8184 134.082 15.2344 131.445 15.2344 L 116.504 15.2344 L 116.504 -83.2031 C 116.504 -85.7422 117.92 -87.1582 120.508 -87.1582 Z M 171.094 12.2559 L 163.574 -63.8672 C 163.33 -66.4062 164.502 -67.8711 167.09 -68.1641 L 176.27 -69.0918 C 178.857 -69.3848 180.371 -68.1152 180.615 -65.5762 L 188.135 10.5469 C 188.379 13.0371 187.207 14.5996 184.619 14.8926 L 175.439 15.7715 C 172.9 16.0645 171.338 14.8438 171.094 12.2559 Z M 40.1367 15.2344 C 37.5 15.2344 36.1328 13.8184 36.1328 11.2305 L 36.1328 -64.1113 C 36.1328 -66.6504 37.5 -68.0664 40.1367 -68.0664 L 43.9941 -68.0664 C 46.582 -68.0664 47.9492 -66.6504 47.9492 -64.1113 L 47.9492 15.2344 Z M 71.9727 -43.1641 L 92.5293 -43.1641 C 95.1172 -43.1641 96.4844 -41.748 96.4844 -39.209 L 96.4844 15.2344 L 67.9688 15.2344 L 67.9688 -39.209 C 67.9688 -41.748 69.3848 -43.1641 71.9727 -43.1641 Z M 76.2695 -27.832 L 88.7695 -27.832 C 91.4551 -27.832 93.5059 -29.9805 93.5059 -32.6172 C 93.5059 -35.3516 91.4551 -37.4512 88.7695 -37.4512 L 76.2695 -37.4512 C 73.4863 -37.4512 71.4844 -35.3516 71.4844 -32.6172 C 71.4844 -29.9805 73.584 -27.832 76.2695 -27.832 Z M 76.2695 9.52148 L 88.7695 9.52148 C 91.4551 9.52148 93.5059 7.42188 93.5059 4.73633 C 93.5059 2.05078 91.4551 -0.0976562 88.7695 -0.0976562 L 76.2695 -0.0976562 C 73.584 -0.0976562 71.4844 2.05078 71.4844 4.73633 C 71.4844 7.42188 73.4863 9.52148 76.2695 9.52148 Z"/>
  </g>
  <g id="Heavy-L" transform="matrix(1 0 0 1 2528.22 1556)">
   <path d="M 168.262 35.2051 L 184.473 33.5938 C 196.387 32.3242 201.855 25.6348 200.684 13.7207 L 191.943 -73.1934 C 190.771 -85.1074 184.082 -90.7715 172.119 -89.502 L 155.908 -87.8906 C 153.76 -87.6465 151.855 -87.2559 150.098 -86.6699 L 150.098 -88.6719 C 150.098 -100.684 143.994 -106.885 132.031 -106.885 L 113.184 -106.885 C 101.123 -106.885 95.0195 -100.684 95.0195 -88.6719 L 95.0195 -64.2578 C 94.7266 -64.2578 94.4336 -64.2578 94.1406 -64.2578 L 64.9902 -64.2578 C 64.6484 -64.2578 64.3555 -64.2578 64.0625 -64.2578 L 64.0625 -70.166 C 64.0625 -82.1777 57.959 -88.3789 45.9473 -88.3789 L 34.2285 -88.3789 C 22.2168 -88.3789 16.1133 -82.1777 16.1133 -70.166 L 16.1133 16.3086 C 16.1133 28.3203 22.2168 34.4727 34.2285 34.4727 L 132.031 34.4727 C 141.357 34.4727 147.168 30.7129 149.219 23.3398 C 151.562 32.1777 157.91 36.2793 168.262 35.2051 Z M 116.65 -89.6484 L 128.516 -89.6484 C 131.445 -89.6484 132.91 -88.1348 132.91 -85.3027 L 132.91 12.8906 C 132.91 15.7227 131.445 17.2852 128.516 17.2852 L 112.256 17.2852 L 112.256 -85.3027 C 112.256 -88.1348 113.721 -89.6484 116.65 -89.6484 Z M 165.283 13.8672 L 157.129 -66.3574 C 156.836 -69.1406 158.154 -70.752 161.035 -71.0938 L 170.264 -72.0215 C 173.193 -72.3633 174.805 -70.9473 175.098 -68.2129 L 183.252 12.0117 C 183.545 14.7949 182.227 16.4062 179.346 16.748 L 170.068 17.7246 C 167.236 18.0664 165.576 16.6992 165.283 13.8672 Z M 37.7441 17.2852 C 34.8145 17.2852 33.3496 15.7227 33.3496 12.8906 L 33.3496 -66.7969 C 33.3496 -69.6289 34.8145 -71.1426 37.7441 -71.1426 L 42.4316 -71.1426 C 45.3613 -71.1426 46.8262 -69.6289 46.8262 -66.7969 L 46.8262 17.2852 Z M 68.457 -47.0703 L 90.625 -47.0703 C 93.5547 -47.0703 95.0195 -45.5078 95.0195 -42.7246 L 95.0195 17.2852 L 64.0625 17.2852 L 64.0625 -42.7246 C 64.0625 -45.5078 65.5762 -47.0703 68.457 -47.0703 Z M 72.6562 -31.7383 L 86.9141 -31.7383 C 89.4043 -31.7383 91.3086 -33.6914 91.3086 -36.1816 C 91.3086 -38.7207 89.4043 -40.6738 86.9141 -40.6738 L 72.6562 -40.6738 C 70.0684 -40.6738 68.1641 -38.7207 68.1641 -36.1816 C 68.1641 -33.6914 70.1172 -31.7383 72.6562 -31.7383 Z M 72.6562 10.8887 L 86.9141 10.8887 C 89.4043 10.8887 91.3086 8.88672 91.3086 6.39648 C 91.3086 3.90625 89.4043 1.9043 86.9141 1.9043 L 72.6562 1.9043 C 70.1172 1.9043 68.1641 3.90625 68.1641 6.39648 C 68.1641 8.88672 70.0684 10.8887 72.6562 10.8887 Z"/>
  </g>
  <g id="Bold-L" transform="matrix(1 0 0 1 2235.85 1556)">
   <path d="M 145.02 19.4824 C 146.143 30.2734 152.1 35.3516 162.939 34.1309 L 177.393 32.6172 C 188.281 31.3965 193.066 25.4395 191.992 14.5996 L 182.666 -74.9023 C 181.592 -85.6934 175.586 -90.8203 164.746 -89.5996 L 150.293 -88.0859 C 147.949 -87.8418 145.898 -87.3535 144.141 -86.6699 L 144.141 -90.0879 C 144.141 -100.977 138.672 -106.543 127.783 -106.543 L 109.766 -106.543 C 98.8281 -106.543 93.3594 -100.977 93.3594 -90.0879 L 93.3594 -65.4297 C 92.6758 -65.4785 91.8945 -65.5273 91.1133 -65.5273 L 61.9629 -65.5273 C 61.1328 -65.5273 60.4004 -65.4785 59.668 -65.4297 L 59.668 -72.2168 C 59.668 -83.1055 54.1992 -88.6719 43.3105 -88.6719 L 32.4707 -88.6719 C 21.582 -88.6719 16.1133 -83.1055 16.1133 -72.2168 L 16.1133 17.1875 C 16.1133 28.0762 21.582 33.6426 32.4707 33.6426 L 127.783 33.6426 C 138.672 33.6426 144.141 28.0762 144.141 17.1875 L 144.141 10.9375 Z M 112.305 -92.4316 L 125.195 -92.4316 C 128.467 -92.4316 130.029 -90.8203 130.029 -87.6953 L 130.029 14.7461 C 130.029 17.9199 128.467 19.5801 125.195 19.5801 L 107.471 19.5801 L 107.471 -87.6953 C 107.471 -90.8203 109.082 -92.4316 112.305 -92.4316 Z M 158.789 15.625 L 149.951 -69.0918 C 149.609 -72.2168 151.025 -73.9258 154.248 -74.3164 L 163.574 -75.3418 C 166.797 -75.7324 168.555 -74.1699 168.896 -71.1426 L 177.734 13.623 C 178.076 16.748 176.709 18.457 173.486 18.8477 L 164.062 19.873 C 160.889 20.2637 159.131 18.75 158.789 15.625 Z M 35.0586 19.5801 C 31.8359 19.5801 30.2246 17.9199 30.2246 14.7461 L 30.2246 -69.8242 C 30.2246 -72.9492 31.8359 -74.6094 35.0586 -74.6094 L 40.7227 -74.6094 C 43.9941 -74.6094 45.5566 -72.9492 45.5566 -69.8242 L 45.5566 19.5801 Z M 64.502 -51.416 L 88.5254 -51.416 C 91.7969 -51.416 93.3594 -49.7559 93.3594 -46.6797 L 93.3594 19.5801 L 59.668 19.5801 L 59.668 -46.6797 C 59.668 -49.7559 61.2793 -51.416 64.502 -51.416 Z M 68.5547 -36.084 L 84.8145 -36.084 C 87.1094 -36.084 88.8672 -37.8906 88.8672 -40.1367 C 88.8672 -42.4805 87.1094 -44.2383 84.8145 -44.2383 L 68.5547 -44.2383 C 66.1621 -44.2383 64.4043 -42.4805 64.4043 -40.1367 C 64.4043 -37.8906 66.2109 -36.084 68.5547 -36.084 Z M 68.5547 12.4023 L 84.8145 12.4023 C 87.1094 12.4023 88.8672 10.5957 88.8672 8.30078 C 88.8672 6.00586 87.1094 4.19922 84.8145 4.19922 L 68.5547 4.19922 C 66.2109 4.19922 64.4043 6.00586 64.4043 8.30078 C 64.4043 10.5957 66.1621 12.4023 68.5547 12.4023 Z"/>
  </g>
  <g id="Semibold-L" transform="matrix(1 0 0 1 1942.14 1556)">
   <path d="M 142.627 19.873 C 143.75 29.8828 149.17 34.6191 159.277 33.3984 L 172.559 31.9824 C 182.666 30.7617 187.012 25.293 185.986 15.2344 L 176.318 -76.123 C 175.244 -86.084 169.775 -90.8691 159.668 -89.6484 L 146.387 -88.2324 C 143.896 -87.9395 141.797 -87.4023 139.99 -86.5723 L 139.99 -91.0645 C 139.99 -101.123 135.01 -106.299 124.854 -106.299 L 107.422 -106.299 C 97.2168 -106.299 92.2363 -101.123 92.2363 -91.0645 L 92.2363 -66.1621 C 91.2598 -66.3086 90.1855 -66.3574 89.0625 -66.3574 L 59.8633 -66.3574 C 58.7402 -66.3574 57.6172 -66.3086 56.6406 -66.1621 L 56.6406 -73.6328 C 56.6406 -83.7402 51.6113 -88.916 41.5039 -88.916 L 31.2988 -88.916 C 21.0938 -88.916 16.1133 -83.7402 16.1133 -73.6328 L 16.1133 17.8223 C 16.1133 27.9297 21.0938 33.0566 31.2988 33.0566 L 124.854 33.0566 C 135.01 33.0566 139.99 27.9297 139.99 17.8223 L 139.99 -5.0293 Z M 109.326 -94.3848 L 122.9 -94.3848 C 126.416 -94.3848 128.076 -92.627 128.076 -89.3066 L 128.076 16.0645 C 128.076 19.4336 126.416 21.1426 122.9 21.1426 L 104.199 21.1426 L 104.199 -89.3066 C 104.199 -92.627 105.859 -94.3848 109.326 -94.3848 Z M 154.297 16.8457 L 144.971 -70.9961 C 144.629 -74.3164 146.094 -76.123 149.561 -76.5625 L 158.984 -77.5879 C 162.402 -78.0273 164.258 -76.416 164.648 -73.1445 L 173.975 14.6973 C 174.316 18.0664 172.852 19.873 169.434 20.3125 L 159.961 21.3379 C 156.543 21.7773 154.639 20.2148 154.297 16.8457 Z M 33.2031 21.1426 C 29.7363 21.1426 28.0273 19.4336 28.0273 16.0645 L 28.0273 -71.875 C 28.0273 -75.2441 29.7363 -76.9531 33.2031 -76.9531 L 39.5508 -76.9531 C 43.0176 -76.9531 44.6777 -75.2441 44.6777 -71.875 L 44.6777 21.1426 Z M 61.7676 -54.4434 L 87.1094 -54.4434 C 90.5762 -54.4434 92.2363 -52.6855 92.2363 -49.3652 L 92.2363 21.1426 L 56.6406 21.1426 L 56.6406 -49.3652 C 56.6406 -52.6855 58.3008 -54.4434 61.7676 -54.4434 Z M 65.7715 -39.0625 L 83.3496 -39.0625 C 85.5469 -39.0625 87.207 -40.7715 87.207 -42.9199 C 87.207 -45.0684 85.5469 -46.7285 83.3496 -46.7285 L 65.7715 -46.7285 C 63.5254 -46.7285 61.8652 -45.0684 61.8652 -42.9199 C 61.8652 -40.7715 63.5254 -39.0625 65.7715 -39.0625 Z M 65.7715 13.4766 L 83.3496 13.4766 C 85.5469 13.4766 87.207 11.7676 87.207 9.57031 C 87.207 7.4707 85.5469 5.76172 83.3496 5.76172 L 65.7715 5.76172 C 63.5254 5.76172 61.8652 7.4707 61.8652 9.57031 C 61.8652 11.7676 63.5254 13.4766 65.7715 13.4766 Z"/>
  </g>
  <g id="Medium-L" transform="matrix(1 0 0 1 1647.7 1556)">
   <path d="M 140.82 20.166 C 141.895 29.5898 146.924 34.0332 156.494 32.8613 L 168.848 31.4941 C 178.418 30.2734 182.471 25.1465 181.445 15.7227 L 171.484 -77.002 C 170.459 -86.4258 165.381 -90.918 155.811 -89.6973 L 143.457 -88.3301 C 140.869 -87.9883 138.672 -87.4023 136.865 -86.4746 L 136.865 -91.7969 C 136.865 -101.27 132.227 -106.152 122.656 -106.152 L 105.615 -106.152 C 96.0449 -106.152 91.4062 -101.27 91.4062 -91.7969 L 91.4062 -66.6992 C 90.1855 -66.8945 88.8672 -67.041 87.5 -67.041 L 58.3008 -67.041 C 56.8359 -67.041 55.5176 -66.8945 54.3457 -66.6992 L 54.3457 -74.707 C 54.3457 -84.2285 49.6582 -89.0625 40.1367 -89.0625 L 30.3711 -89.0625 C 20.752 -89.0625 16.1133 -84.2285 16.1133 -74.707 L 16.1133 18.3105 C 16.1133 27.7832 20.752 32.666 30.3711 32.666 L 122.656 32.666 C 132.227 32.666 136.865 27.7832 136.865 18.3105 L 136.865 -16.6992 Z M 107.08 -95.8496 L 121.191 -95.8496 C 124.854 -95.8496 126.562 -94.043 126.562 -90.5273 L 126.562 16.9922 C 126.562 20.5566 124.854 22.3633 121.191 22.3633 L 101.66 22.3633 L 101.66 -90.5273 C 101.66 -94.043 103.418 -95.8496 107.08 -95.8496 Z M 150.879 17.7734 L 141.211 -72.4609 C 140.82 -75.9277 142.383 -77.7832 145.996 -78.2715 L 155.469 -79.3457 C 159.082 -79.7852 161.035 -78.0762 161.426 -74.6582 L 171.094 15.5762 C 171.484 19.0918 169.971 20.9473 166.357 21.3867 L 156.836 22.4609 C 153.223 22.9492 151.27 21.2891 150.879 17.7734 Z M 31.7871 22.3633 C 28.1738 22.3633 26.416 20.5566 26.416 16.9922 L 26.416 -73.4863 C 26.416 -76.9531 28.1738 -78.7598 31.7871 -78.7598 L 38.6719 -78.7598 C 42.334 -78.7598 44.043 -76.9531 44.043 -73.4863 L 44.043 22.3633 Z M 59.7168 -56.7383 L 85.9863 -56.7383 C 89.6484 -56.7383 91.4062 -54.9316 91.4062 -51.416 L 91.4062 22.3633 L 54.3457 22.3633 L 54.3457 -51.416 C 54.3457 -54.9316 56.1035 -56.7383 59.7168 -56.7383 Z M 63.623 -41.3086 L 82.2754 -41.3086 C 84.3262 -41.3086 85.9375 -42.9199 85.9375 -44.9707 C 85.9375 -47.0215 84.3262 -48.584 82.2754 -48.584 L 63.623 -48.584 C 61.4746 -48.584 59.9121 -47.0215 59.9121 -44.9707 C 59.9121 -42.9199 61.5234 -41.3086 63.623 -41.3086 Z M 63.623 14.2578 L 82.2754 14.2578 C 84.3262 14.2578 85.9375 12.6465 85.9375 10.5957 C 85.9375 8.54492 84.3262 6.98242 82.2754 6.98242 L 63.623 6.98242 C 61.5234 6.98242 59.9121 8.54492 59.9121 10.5957 C 59.9121 12.6465 61.4746 14.2578 63.623 14.2578 Z"/>
  </g>
  <g id="Regular-L" transform="matrix(1 0 0 1 1353.97 1556)">
   <path d="M 138.477 20.6055 C 139.502 29.1992 144.043 33.3008 152.881 32.1289 L 164.062 30.8594 C 172.852 29.6875 176.465 25 175.488 16.3574 L 165.186 -78.2227 C 164.209 -86.8164 159.619 -90.9668 150.781 -89.7949 L 139.6 -88.4766 C 136.816 -88.0859 134.57 -87.4023 132.764 -86.3281 L 132.764 -92.7734 C 132.764 -101.465 128.564 -105.908 119.775 -105.908 L 103.32 -105.908 C 94.4336 -105.908 90.2832 -101.465 90.2832 -92.7734 L 90.2832 -67.2852 C 88.8672 -67.6758 87.2559 -67.8711 85.4492 -67.8711 L 56.2012 -67.8711 C 54.3945 -67.8711 52.7832 -67.6758 51.3184 -67.2852 L 51.3184 -76.123 C 51.3184 -84.8633 47.1191 -89.2578 38.3301 -89.2578 L 29.1504 -89.2578 C 20.3125 -89.2578 16.1133 -84.8633 16.1133 -76.123 L 16.1133 18.9453 C 16.1133 27.6367 20.3125 32.0801 29.1504 32.0801 L 119.775 32.0801 C 128.564 32.0801 132.764 27.6367 132.764 18.9453 L 132.764 -31.4941 Z M 104.102 -97.7539 L 118.945 -97.7539 C 122.803 -97.7539 124.609 -95.8496 124.609 -92.1387 L 124.609 18.2617 C 124.609 22.0215 122.803 23.9258 118.945 23.9258 L 98.4375 23.9258 L 98.4375 -92.1387 C 98.4375 -95.8496 100.244 -97.7539 104.102 -97.7539 Z M 146.484 18.9453 L 136.328 -74.3164 C 135.889 -78.0273 137.5 -79.9805 141.357 -80.4688 L 150.928 -81.5918 C 154.736 -82.0801 156.787 -80.2734 157.178 -76.6602 L 167.334 16.6504 C 167.773 20.4102 166.162 22.3145 162.305 22.8516 L 152.734 23.9258 C 148.877 24.4629 146.875 22.7051 146.484 18.9453 Z M 29.9805 23.9258 C 26.123 23.9258 24.2676 22.0215 24.2676 18.2617 L 24.2676 -75.5371 C 24.2676 -79.1992 26.123 -81.1035 29.9805 -81.1035 L 37.5 -81.1035 C 41.3574 -81.1035 43.1641 -79.1992 43.1641 -75.5371 L 43.1641 23.9258 Z M 57.0312 -59.7168 L 84.5703 -59.7168 C 88.4766 -59.7168 90.2832 -57.8125 90.2832 -54.1016 L 90.2832 23.9258 L 51.3184 23.9258 L 51.3184 -54.1016 C 51.3184 -57.8125 53.1738 -59.7168 57.0312 -59.7168 Z M 60.8398 -44.2871 L 80.8105 -44.2871 C 82.7637 -44.2871 84.2285 -45.8008 84.2285 -47.7051 C 84.2285 -49.5605 82.7637 -51.0254 80.8105 -51.0254 L 60.8398 -51.0254 C 58.8379 -51.0254 57.373 -49.5605 57.373 -47.7051 C 57.373 -45.8008 58.8379 -44.2871 60.8398 -44.2871 Z M 60.8398 15.2832 L 80.8105 15.2832 C 82.7637 15.2832 84.2285 13.7695 84.2285 11.8652 C 84.2285 10.0098 82.7637 8.54492 80.8105 8.54492 L 60.8398 8.54492 C 58.8379 8.54492 57.373 10.0098 57.373 11.8652 C 57.373 13.7695 58.8379 15.2832 60.8398 15.2832 Z"/>
  </g>
  <g id="Light-L" transform="matrix(1 0 0 1 1060.53 1556)">
   <path d="M 134.033 21.9727 C 134.814 29.2969 138.623 32.8613 146.338 31.9336 L 159.033 30.6641 C 166.699 29.7363 169.775 25.6348 168.945 18.2617 L 159.424 -76.7578 C 158.594 -84.1309 154.736 -87.7441 147.021 -86.8164 L 134.326 -85.498 C 131.836 -85.1562 129.834 -84.5703 128.32 -83.5938 L 128.32 -92.9199 C 128.32 -100.391 124.756 -104.248 117.09 -104.248 L 99.8535 -104.248 C 92.1875 -104.248 88.623 -100.391 88.623 -92.9199 L 88.623 -66.7969 C 87.2559 -67.2852 85.6445 -67.4805 83.7402 -67.4805 L 54.3457 -67.4805 C 52.4414 -67.4805 50.7812 -67.2852 49.4141 -66.7969 L 49.4141 -77.3926 C 49.4141 -84.8633 45.8984 -88.7207 38.1836 -88.7207 L 27.3438 -88.7207 C 19.6289 -88.7207 16.1133 -84.8633 16.1133 -77.3926 L 16.1133 20.459 C 16.1133 27.9297 19.6289 31.7871 27.3438 31.7871 L 117.09 31.7871 C 124.756 31.7871 128.32 27.9297 128.32 20.459 L 128.32 -34.2773 Z M 100.439 -97.9492 L 116.504 -97.9492 C 120.312 -97.9492 121.973 -96.1914 121.973 -92.4805 L 121.973 20.0195 C 121.973 23.7305 120.312 25.4395 116.504 25.4395 L 94.9707 25.4395 L 94.9707 -92.4805 C 94.9707 -96.1914 96.6309 -97.9492 100.439 -97.9492 Z M 27.9297 25.4395 C 24.1211 25.4395 22.4121 23.7305 22.4121 20.0195 L 22.4121 -76.9531 C 22.4121 -80.6641 24.1211 -82.4219 27.9297 -82.4219 L 37.5977 -82.4219 C 41.4551 -82.4219 43.1152 -80.6641 43.1152 -76.9531 L 43.1152 25.4395 Z M 140.186 20.752 L 130.713 -73.3398 C 130.322 -77.0508 131.836 -78.8574 135.645 -79.2969 L 147.168 -80.4688 C 150.977 -80.9082 152.783 -79.248 153.174 -75.6348 L 162.646 18.5059 C 163.037 22.2168 161.572 24.0234 157.764 24.4629 L 146.191 25.5859 C 142.432 26.0742 140.576 24.5117 140.186 20.752 Z M 54.8828 -61.1816 L 83.1543 -61.1816 C 86.9629 -61.1816 88.623 -59.4727 88.623 -55.7617 L 88.623 25.4395 L 49.4141 25.4395 L 49.4141 -55.7617 C 49.4141 -59.4727 51.123 -61.1816 54.8828 -61.1816 Z M 58.7891 -46.7285 L 79.3457 -46.7285 C 80.9082 -46.7285 82.1289 -47.9492 82.1289 -49.4629 C 82.1289 -50.9766 80.9082 -52.1484 79.3457 -52.1484 L 58.7891 -52.1484 C 57.1777 -52.1484 55.957 -50.9766 55.957 -49.4629 C 55.957 -47.9492 57.1777 -46.7285 58.7891 -46.7285 Z M 58.7891 16.4551 L 79.3457 16.4551 C 80.9082 16.4551 82.1289 15.2344 82.1289 13.7207 C 82.1289 12.207 80.9082 10.9863 79.3457 10.9863 L 58.7891 10.9863 C 57.1777 10.9863 55.957 12.207 55.957 13.7207 C 55.957 15.2344 57.1777 16.4551 58.7891 16.4551 Z"/>
  </g>
  <g id="Thin-L" transform="matrix(1 0 0 1 768.165 1556)">
   <path d="M 128.076 23.7793 C 128.662 29.4434 131.494 32.2754 137.646 31.6895 L 152.344 30.4199 C 158.545 29.834 160.889 26.5137 160.352 20.752 L 151.709 -74.8535 C 151.172 -80.6152 148.242 -83.4473 142.09 -82.8613 L 127.393 -81.4941 C 125.293 -81.2988 123.633 -80.8105 122.363 -79.9805 L 122.363 -93.1641 C 122.363 -98.9258 119.727 -102.051 113.574 -102.051 L 95.3125 -102.051 C 89.1113 -102.051 86.4746 -98.9258 86.4746 -93.1641 L 86.4746 -66.0156 C 85.2051 -66.6504 83.5449 -66.9922 81.543 -66.9922 L 51.8555 -66.9922 C 49.8047 -66.9922 48.1445 -66.6504 46.875 -66.0156 L 46.875 -79.1504 C 46.875 -84.8633 44.2383 -87.9883 38.0371 -87.9883 L 24.9512 -87.9883 C 18.75 -87.9883 16.1133 -84.8633 16.1133 -79.1504 L 16.1133 22.5098 C 16.1133 28.2715 18.75 31.3477 24.9512 31.3477 L 113.574 31.3477 C 119.727 31.3477 122.363 28.2715 122.363 22.5098 L 122.363 -39.0625 Z M 95.5566 -98.1934 L 113.281 -98.1934 C 117.041 -98.1934 118.506 -96.6797 118.506 -92.9688 L 118.506 22.2656 C 118.506 25.9766 117.041 27.4902 113.281 27.4902 L 90.332 27.4902 L 90.332 -92.9688 C 90.332 -96.6797 91.8457 -98.1934 95.5566 -98.1934 Z M 25.1953 27.4902 C 21.4844 27.4902 19.9707 25.9766 19.9707 22.2656 L 19.9707 -78.9062 C 19.9707 -82.6172 21.4844 -84.1309 25.1953 -84.1309 L 37.793 -84.1309 C 41.5039 -84.1309 43.0176 -82.6172 43.0176 -78.9062 L 43.0176 27.4902 Z M 131.885 23.1445 L 123.291 -72.0215 C 122.949 -75.7324 124.316 -77.3926 128.076 -77.7344 L 142.236 -79.0039 C 145.947 -79.3457 147.559 -77.9297 147.9 -74.3164 L 156.494 20.9473 C 156.787 24.6582 155.469 26.2207 151.758 26.5625 L 137.598 27.832 C 133.887 28.1738 132.227 26.8555 131.885 23.1445 Z M 52.0996 -63.1348 L 81.25 -63.1348 C 85.0098 -63.1348 86.4746 -61.6211 86.4746 -57.959 L 86.4746 27.4902 L 46.875 27.4902 L 46.875 -57.959 C 46.875 -61.6211 48.3398 -63.1348 52.0996 -63.1348 Z M 56.0059 -49.9512 L 77.3438 -49.9512 C 78.4668 -49.9512 79.248 -50.7812 79.248 -51.8066 C 79.248 -52.7832 78.4668 -53.6133 77.3438 -53.6133 L 56.0059 -53.6133 C 54.9316 -53.6133 54.1016 -52.7832 54.1016 -51.8066 C 54.1016 -50.7812 54.9316 -49.9512 56.0059 -49.9512 Z M 56.0059 17.9688 L 77.3438 17.9688 C 78.4668 17.9688 79.248 17.1387 79.248 16.1133 C 79.248 15.0879 78.4668 14.3066 77.3438 14.3066 L 56.0059 14.3066 C 54.9316 14.3066 54.1016 15.0879 54.1016 16.1133 C 54.1016 17.1387 54.9316 17.9688 56.0059 17.9688 Z"/>
  </g>
  <g id="Ultralight-L" transform="matrix(1 0 0 1 473.676 1556)">
   <path d="M 125.049 24.707 C 125.488 29.4922 127.832 31.9824 133.252 31.5918 L 148.926 30.2734 C 154.346 29.8828 156.348 26.9531 155.908 22.0703 L 147.803 -73.877 C 147.363 -78.8086 144.971 -81.25 139.551 -80.8594 L 123.828 -79.4922 C 121.924 -79.3457 120.459 -78.9062 119.336 -78.125 L 119.336 -93.3105 C 119.336 -98.1934 117.139 -100.928 111.719 -100.928 L 93.0176 -100.928 C 87.5977 -100.928 85.4004 -98.1934 85.4004 -93.3105 L 85.4004 -65.4785 C 84.1797 -66.3086 82.5195 -66.748 80.3711 -66.748 L 50.5371 -66.748 C 48.3887 -66.748 46.7773 -66.3086 45.5566 -65.4785 L 45.5566 -79.9805 C 45.5566 -84.9121 43.3594 -87.5977 37.9395 -87.5977 L 23.7305 -87.5977 C 18.3105 -87.5977 16.1133 -84.9121 16.1133 -79.9805 L 16.1133 23.5352 C 16.1133 28.418 18.3105 31.1523 23.7305 31.1523 L 111.719 31.1523 C 117.139 31.1523 119.336 28.418 119.336 23.5352 L 119.336 -42.0898 Z M 93.0664 -98.291 L 111.67 -98.291 C 115.332 -98.291 116.748 -96.9238 116.748 -93.2129 L 116.748 23.4375 C 116.748 27.1484 115.332 28.5156 111.67 28.5156 L 87.9883 28.5156 L 87.9883 -93.2129 C 87.9883 -96.9238 89.4043 -98.291 93.0664 -98.291 Z M 23.8281 28.5156 C 20.1172 28.5156 18.75 27.1484 18.75 23.4375 L 18.75 -79.8828 C 18.75 -83.5938 20.1172 -85.0098 23.8281 -85.0098 L 37.8906 -85.0098 C 41.5527 -85.0098 42.9688 -83.5938 42.9688 -79.8828 L 42.9688 28.5156 Z M 127.588 24.3652 L 119.482 -71.3867 C 119.141 -75.0977 120.508 -76.6602 124.17 -76.9531 L 139.697 -78.2715 C 143.408 -78.5645 144.873 -77.2461 145.166 -73.6328 L 153.32 22.168 C 153.613 25.8789 152.344 27.3438 148.682 27.6855 L 133.154 28.9551 C 129.492 29.248 127.93 28.0273 127.588 24.3652 Z M 50.6348 -64.1602 L 80.3223 -64.1602 C 83.9844 -64.1602 85.4004 -62.7441 85.4004 -59.0332 L 85.4004 28.5156 L 45.5566 28.5156 L 45.5566 -59.0332 C 45.5566 -62.7441 46.9727 -64.1602 50.6348 -64.1602 Z M 54.5898 -51.6113 L 76.3184 -51.6113 C 77.1973 -51.6113 77.832 -52.1973 77.832 -52.9785 C 77.832 -53.7598 77.1973 -54.3945 76.3184 -54.3945 L 54.5898 -54.3945 C 53.7598 -54.3945 53.125 -53.7598 53.125 -52.9785 C 53.125 -52.1973 53.7598 -51.6113 54.5898 -51.6113 Z M 54.5898 18.75 L 76.3184 18.75 C 77.1973 18.75 77.832 18.1152 77.832 17.3828 C 77.832 16.6016 77.1973 15.9668 76.3184 15.9668 L 54.5898 15.9668 C 53.7598 15.9668 53.125 16.6016 53.125 17.3828 C 53.125 18.1152 53.7598 18.75 54.5898 18.75 Z"/>
  </g>
  <g id="Black-M" transform="matrix(1 0 0 1 2842.85 1126)">
   <path d="M 136.963 21.2402 L 153.613 19.7754 C 164.307 18.8477 169.482 12.6953 168.506 2.00195 L 163.135 -60.5957 C 162.207 -71.2891 156.055 -76.416 145.312 -75.4883 L 128.711 -74.0723 C 127.49 -73.9746 126.367 -73.7793 125.293 -73.5352 L 125.293 -74.0723 C 125.293 -84.8633 119.629 -90.4785 108.838 -90.4785 L 92.2852 -90.4785 C 81.4941 -90.4785 75.8789 -84.8633 75.8789 -74.0723 L 75.8789 -55.1758 L 56.9336 -55.1758 L 56.9336 -59.1309 C 56.9336 -69.873 51.2695 -75.5371 40.4785 -75.5371 L 28.8574 -75.5371 C 18.1152 -75.5371 12.4512 -69.873 12.4512 -59.1309 L 12.4512 3.80859 C 12.4512 14.5508 18.1152 20.2148 28.8574 20.2148 L 108.838 20.2148 C 114.746 20.2148 119.141 18.5059 121.875 15.2344 C 124.756 19.7754 129.834 21.875 136.963 21.2402 Z M 96.582 -72.2168 L 104.541 -72.2168 C 106.104 -72.2168 106.982 -71.3379 106.982 -69.7754 L 106.982 -0.537109 C 106.982 1.07422 106.104 1.9043 104.541 1.9043 L 94.1895 1.9043 L 94.1895 -69.7754 C 94.1895 -71.3379 95.0195 -72.2168 96.582 -72.2168 Z M 33.2031 1.9043 C 31.5918 1.9043 30.7617 1.07422 30.7617 -0.537109 L 30.7617 -54.7852 C 30.7617 -56.3965 31.5918 -57.2266 33.2031 -57.2266 L 36.1816 -57.2266 C 37.793 -57.2266 38.623 -56.3965 38.623 -54.7852 L 38.623 1.9043 Z M 137.012 0.439453 L 132.373 -53.5645 C 132.275 -55.1758 133.008 -56.1035 134.57 -56.2012 L 142.627 -56.8848 C 144.238 -56.9824 145.166 -56.2988 145.264 -54.6875 L 149.902 -0.683594 C 150 0.830078 149.268 1.80664 147.705 1.95312 L 139.648 2.63672 C 138.135 2.73438 137.158 2.00195 137.012 0.439453 Z M 59.375 -36.8652 L 73.4375 -36.8652 C 75 -36.8652 75.8789 -36.0352 75.8789 -34.4238 L 75.8789 1.9043 L 56.9336 1.9043 L 56.9336 -34.4238 C 56.9336 -36.0352 57.7637 -36.8652 59.375 -36.8652 Z M 62.8906 -25.5859 L 70.5078 -25.5859 C 72.6074 -25.5859 74.2188 -27.2949 74.2188 -29.3457 C 74.2188 -31.543 72.6074 -33.2031 70.5078 -33.2031 L 62.8906 -33.2031 C 60.6934 -33.2031 59.082 -31.543 59.082 -29.3457 C 59.082 -27.2949 60.7422 -25.5859 62.8906 -25.5859 Z M 62.8906 -1.75781 L 70.5078 -1.75781 C 72.6074 -1.75781 74.2188 -3.4668 74.2188 -5.56641 C 74.2188 -7.71484 72.6074 -9.47266 70.5078 -9.47266 L 62.8906 -9.47266 C 60.7422 -9.47266 59.082 -7.71484 59.082 -5.56641 C 59.082 -3.4668 60.6934 -1.75781 62.8906 -1.75781 Z"/>
  </g>
  <g id="Heavy-M" transform="matrix(1 0 0 1 2549.56 1126)">
   <path d="M 133.447 20.2637 L 147.998 18.8965 C 157.959 17.9688 162.646 12.3535 161.719 2.39258 L 155.615 -62.6465 C 154.688 -72.5586 149.072 -77.3438 139.111 -76.3672 L 124.561 -75.0488 C 123.145 -74.9023 121.826 -74.6582 120.605 -74.3164 L 120.605 -75.3906 C 120.605 -85.4004 115.43 -90.625 105.42 -90.625 L 89.8438 -90.625 C 79.834 -90.625 74.6582 -85.4004 74.6582 -75.3906 L 74.6582 -56.4941 L 53.125 -56.4941 L 53.125 -60.791 C 53.125 -70.8008 47.9492 -75.9766 37.9395 -75.9766 L 27.6367 -75.9766 C 17.627 -75.9766 12.4512 -70.8008 12.4512 -60.791 L 12.4512 4.29688 C 12.4512 14.3066 17.627 19.4824 27.6367 19.4824 L 105.42 19.4824 C 111.816 19.4824 116.26 17.334 118.604 13.1836 C 121.094 18.5547 126.074 20.9473 133.447 20.2637 Z M 93.3105 -74.9023 L 101.953 -74.9023 C 103.857 -74.9023 104.883 -73.877 104.883 -71.9727 L 104.883 0.830078 C 104.883 2.73438 103.857 3.75977 101.953 3.75977 L 90.3809 3.75977 L 90.3809 -71.9727 C 90.3809 -73.877 91.4062 -74.9023 93.3105 -74.9023 Z M 132.324 1.66016 L 126.807 -56.543 C 126.66 -58.3984 127.539 -59.4727 129.443 -59.668 L 137.061 -60.4004 C 139.014 -60.5957 140.088 -59.668 140.283 -57.8125 L 145.752 0.390625 C 145.898 2.24609 145.068 3.36914 143.115 3.56445 L 135.498 4.29688 C 133.643 4.49219 132.471 3.56445 132.324 1.66016 Z M 31.1035 3.75977 C 29.1992 3.75977 28.1738 2.73438 28.1738 0.830078 L 28.1738 -57.3242 C 28.1738 -59.2285 29.1992 -60.2539 31.1035 -60.2539 L 34.4727 -60.2539 C 36.4258 -60.2539 37.4023 -59.2285 37.4023 -57.3242 L 37.4023 3.75977 Z M 56.0547 -40.7715 L 71.7285 -40.7715 C 73.6816 -40.7715 74.6582 -39.7461 74.6582 -37.8418 L 74.6582 3.75977 L 53.125 3.75977 L 53.125 -37.8418 C 53.125 -39.7461 54.1504 -40.7715 56.0547 -40.7715 Z M 59.4238 -29.1992 L 68.8477 -29.1992 C 70.8496 -29.1992 72.4121 -30.8105 72.4121 -32.7637 C 72.4121 -34.8145 70.8496 -36.4258 68.8477 -36.4258 L 59.4238 -36.4258 C 57.373 -36.4258 55.8105 -34.8145 55.8105 -32.7637 C 55.8105 -30.8105 57.4219 -29.1992 59.4238 -29.1992 Z M 59.4238 -0.585938 L 68.8477 -0.585938 C 70.8496 -0.585938 72.4121 -2.19727 72.4121 -4.19922 C 72.4121 -6.20117 70.8496 -7.86133 68.8477 -7.86133 L 59.4238 -7.86133 C 57.4219 -7.86133 55.8105 -6.20117 55.8105 -4.19922 C 55.8105 -2.19727 57.373 -0.585938 59.4238 -0.585938 Z"/>
  </g>
  <g id="Bold-M" transform="matrix(1 0 0 1 2256.63 1126)">
   <path d="M 129.541 19.1406 L 141.797 17.9199 C 150.879 16.9434 154.98 11.9141 154.102 2.83203 L 147.217 -64.9902 C 146.289 -74.0234 141.211 -78.3691 132.129 -77.3438 L 119.922 -76.123 C 118.213 -75.9277 116.699 -75.6348 115.332 -75.1465 L 115.332 -76.9043 C 115.332 -86.0352 110.693 -90.7227 101.562 -90.7227 L 87.1582 -90.7227 C 77.9785 -90.7227 73.3398 -86.0352 73.3398 -76.9043 L 73.3398 -57.959 C 73.0469 -57.959 72.7539 -57.959 72.4121 -57.959 L 49.8047 -57.959 C 49.5117 -57.959 49.1699 -57.959 48.877 -57.959 L 48.877 -62.6465 C 48.877 -71.7773 44.2383 -76.4648 35.1074 -76.4648 L 26.2207 -76.4648 C 17.0898 -76.4648 12.4512 -71.7773 12.4512 -62.6465 L 12.4512 4.83398 C 12.4512 13.9648 17.0898 18.6523 26.2207 18.6523 L 101.562 18.6523 C 109.082 18.6523 113.525 15.4785 114.893 9.32617 C 116.455 16.6504 121.387 20.0684 129.541 19.1406 Z M 89.6973 -77.8809 L 99.0234 -77.8809 C 101.367 -77.8809 102.49 -76.6602 102.49 -74.4629 L 102.49 2.34375 C 102.49 4.63867 101.367 5.81055 99.0234 5.81055 L 86.1816 5.81055 L 86.1816 -74.4629 C 86.1816 -76.6602 87.3535 -77.8809 89.6973 -77.8809 Z M 127.051 3.07617 L 120.605 -59.8145 C 120.361 -62.0605 121.387 -63.3301 123.682 -63.5742 L 130.859 -64.3555 C 133.154 -64.5996 134.424 -63.5254 134.668 -61.2793 L 141.113 1.61133 C 141.357 3.85742 140.332 5.12695 138.037 5.41992 L 130.859 6.15234 C 128.564 6.39648 127.246 5.32227 127.051 3.07617 Z M 28.7598 5.81055 C 26.4648 5.81055 25.293 4.63867 25.293 2.34375 L 25.293 -60.2051 C 25.293 -62.4512 26.4648 -63.623 28.7598 -63.623 L 32.5684 -63.623 C 34.8633 -63.623 36.0352 -62.4512 36.0352 -60.2051 L 36.0352 5.81055 Z M 52.3438 -45.1172 L 69.873 -45.1172 C 72.2168 -45.1172 73.3398 -43.8965 73.3398 -41.6992 L 73.3398 5.81055 L 48.877 5.81055 L 48.877 -41.6992 C 48.877 -43.8965 50.0488 -45.1172 52.3438 -45.1172 Z M 55.6152 -33.2031 L 66.9922 -33.2031 C 68.8965 -33.2031 70.3613 -34.7168 70.3613 -36.6211 C 70.3613 -38.5254 68.8965 -40.0391 66.9922 -40.0391 L 55.6152 -40.0391 C 53.6133 -40.0391 52.1484 -38.5254 52.1484 -36.6211 C 52.1484 -34.7168 53.6621 -33.2031 55.6152 -33.2031 Z M 55.6152 0.78125 L 66.9922 0.78125 C 68.8965 0.78125 70.3613 -0.732422 70.3613 -2.68555 C 70.3613 -4.54102 68.8965 -6.10352 66.9922 -6.10352 L 55.6152 -6.10352 C 53.6621 -6.10352 52.1484 -4.54102 52.1484 -2.68555 C 52.1484 -0.732422 53.6133 0.78125 55.6152 0.78125 Z"/>
  </g>
  <g id="Semibold-M" transform="matrix(1 0 0 1 1962.55 1126)">
   <path d="M 112.793 6.93359 C 113.721 15.4297 118.359 19.4336 126.855 18.4082 L 137.5 17.2852 C 145.996 16.2598 149.756 11.6211 148.828 3.125 L 141.406 -66.5527 C 140.527 -75 135.84 -79.0527 127.344 -78.0273 L 116.699 -76.8555 C 114.844 -76.6602 113.135 -76.2695 111.719 -75.6836 L 111.719 -77.9297 C 111.719 -86.4258 107.471 -90.8203 98.9258 -90.8203 L 85.2539 -90.8203 C 76.709 -90.8203 72.4609 -86.4258 72.4609 -77.9297 L 72.4609 -58.8867 C 71.8262 -58.9355 71.1914 -58.9844 70.5078 -58.9844 L 47.9004 -58.9844 C 47.2168 -58.9844 46.582 -58.9355 45.9473 -58.8867 L 45.9473 -63.916 C 45.9473 -72.4609 41.6992 -76.8066 33.1543 -76.8066 L 25.293 -76.8066 C 16.6992 -76.8066 12.4512 -72.4609 12.4512 -63.916 L 12.4512 5.22461 C 12.4512 13.7207 16.6992 18.1152 25.293 18.1152 L 98.9258 18.1152 C 107.471 18.1152 111.719 13.7207 111.719 5.22461 L 111.719 -3.07617 Z M 87.1582 -79.9316 L 97.0215 -79.9316 C 99.6094 -79.9316 100.879 -78.6133 100.879 -76.1719 L 100.879 3.41797 C 100.879 5.9082 99.6094 7.22656 97.0215 7.22656 L 83.3008 7.22656 L 83.3008 -76.1719 C 83.3008 -78.6133 84.5703 -79.9316 87.1582 -79.9316 Z M 123.389 4.05273 L 116.309 -62.1094 C 116.016 -64.5508 117.139 -65.918 119.727 -66.2598 L 126.562 -67.041 C 129.102 -67.3828 130.518 -66.1133 130.811 -63.7207 L 137.891 2.44141 C 138.184 4.93164 137.061 6.29883 134.521 6.64062 L 127.637 7.42188 C 125.098 7.76367 123.682 6.54297 123.389 4.05273 Z M 27.1484 7.22656 C 24.6094 7.22656 23.291 5.9082 23.291 3.41797 L 23.291 -62.1582 C 23.291 -64.6484 24.6094 -65.9668 27.1484 -65.9668 L 31.25 -65.9668 C 33.8379 -65.9668 35.1074 -64.6484 35.1074 -62.1582 L 35.1074 7.22656 Z M 49.8047 -48.0957 L 68.5547 -48.0957 C 71.1914 -48.0957 72.4609 -46.7773 72.4609 -44.3359 L 72.4609 7.22656 L 45.9473 7.22656 L 45.9473 -44.3359 C 45.9473 -46.7773 47.2656 -48.0957 49.8047 -48.0957 Z M 52.9297 -35.9863 L 65.6738 -35.9863 C 67.5293 -35.9863 68.9453 -37.4512 68.9453 -39.2578 C 68.9453 -41.1133 67.5293 -42.5293 65.6738 -42.5293 L 52.9297 -42.5293 C 51.0254 -42.5293 49.6582 -41.1133 49.6582 -39.2578 C 49.6582 -37.4512 51.0742 -35.9863 52.9297 -35.9863 Z M 52.9297 1.66016 L 65.6738 1.66016 C 67.5293 1.66016 68.9453 0.244141 68.9453 -1.61133 C 68.9453 -3.41797 67.5293 -4.88281 65.6738 -4.88281 L 52.9297 -4.88281 C 51.0742 -4.88281 49.6582 -3.41797 49.6582 -1.61133 C 49.6582 0.244141 51.0254 1.66016 52.9297 1.66016 Z"/>
  </g>
  <g id="Medium-M" transform="matrix(1 0 0 1 1667.82 1126)">
   <path d="M 111.523 7.08008 C 112.451 15.0879 116.748 18.8477 124.805 17.8223 L 134.229 16.748 C 142.285 15.7227 145.752 11.377 144.873 3.36914 L 137.012 -67.7734 C 136.133 -75.7812 131.738 -79.5898 123.73 -78.5156 L 114.307 -77.4414 C 112.207 -77.1973 110.449 -76.709 108.984 -75.9766 L 108.984 -78.7109 C 108.984 -86.7676 104.98 -90.8691 96.9238 -90.8691 L 83.8379 -90.8691 C 75.7324 -90.8691 71.7285 -86.7676 71.7285 -78.7109 L 71.7285 -59.5703 C 70.8984 -59.668 70.0195 -59.7168 69.043 -59.7168 L 46.4844 -59.7168 C 45.5078 -59.7168 44.5801 -59.668 43.75 -59.5703 L 43.75 -64.8926 C 43.75 -72.998 39.7461 -77.0996 31.6895 -77.0996 L 24.5605 -77.0996 C 16.4551 -77.0996 12.4512 -72.998 12.4512 -64.8926 L 12.4512 5.51758 C 12.4512 13.5742 16.4551 17.6758 24.5605 17.6758 L 96.9238 17.6758 C 104.98 17.6758 108.984 13.5742 108.984 5.51758 L 108.984 -15.6738 Z M 85.2539 -81.543 L 95.5078 -81.543 C 98.291 -81.543 99.6582 -80.0781 99.6582 -77.4414 L 99.6582 4.19922 C 99.6582 6.88477 98.291 8.34961 95.5078 8.34961 L 81.1035 8.34961 L 81.1035 -77.4414 C 81.1035 -80.0781 82.4707 -81.543 85.2539 -81.543 Z M 120.654 4.78516 L 113.037 -63.8184 C 112.744 -66.4551 113.965 -67.9199 116.699 -68.3105 L 123.291 -69.0918 C 126.025 -69.4824 127.588 -68.1152 127.881 -65.5273 L 135.498 3.07617 C 135.791 5.76172 134.57 7.22656 131.836 7.61719 L 125.195 8.39844 C 122.461 8.78906 120.947 7.4707 120.654 4.78516 Z M 25.9277 8.34961 C 23.1934 8.34961 21.7773 6.88477 21.7773 4.19922 L 21.7773 -63.6719 C 21.7773 -66.3086 23.1934 -67.7246 25.9277 -67.7246 L 30.2246 -67.7246 C 33.0566 -67.7246 34.375 -66.3086 34.375 -63.6719 L 34.375 8.34961 Z M 47.9004 -50.3906 L 67.5781 -50.3906 C 70.4102 -50.3906 71.7285 -48.9746 71.7285 -46.3379 L 71.7285 8.34961 L 43.75 8.34961 L 43.75 -46.3379 C 43.75 -48.9746 45.1172 -50.3906 47.9004 -50.3906 Z M 50.9277 -38.0859 L 64.7461 -38.0859 C 66.5039 -38.0859 67.8711 -39.502 67.8711 -41.2598 C 67.8711 -43.0176 66.5039 -44.3848 64.7461 -44.3848 L 50.9277 -44.3848 C 49.0723 -44.3848 47.7539 -43.0176 47.7539 -41.2598 C 47.7539 -39.502 49.1211 -38.0859 50.9277 -38.0859 Z M 50.9277 2.39258 L 64.7461 2.39258 C 66.5039 2.39258 67.8711 0.976562 67.8711 -0.830078 C 67.8711 -2.53906 66.5039 -3.95508 64.7461 -3.95508 L 50.9277 -3.95508 C 49.1211 -3.95508 47.7539 -2.53906 47.7539 -0.830078 C 47.7539 0.976562 49.0723 2.39258 50.9277 2.39258 Z"/>
  </g>
  <g id="Regular-M" transform="matrix(1 0 0 1 1373.7 1126)">
   <path d="M 109.814 7.22656 C 110.742 14.6484 114.697 18.1152 122.168 17.0898 L 129.98 16.0645 C 137.451 15.0391 140.527 11.084 139.697 3.66211 L 131.299 -69.3359 C 130.42 -76.7578 126.416 -80.2734 118.945 -79.1992 L 111.133 -78.1738 C 108.789 -77.8809 106.885 -77.2461 105.42 -76.3672 L 105.42 -79.6875 C 105.42 -87.207 101.758 -90.9668 94.3359 -90.9668 L 81.9824 -90.9668 C 74.4629 -90.9668 70.8496 -87.207 70.8496 -79.6875 L 70.8496 -60.3516 C 69.7266 -60.5957 68.5059 -60.7422 67.1387 -60.7422 L 44.5801 -60.7422 C 43.2129 -60.7422 41.9434 -60.5957 40.8203 -60.3516 L 40.8203 -66.1621 C 40.8203 -73.6816 37.207 -77.4414 29.7363 -77.4414 L 23.584 -77.4414 C 16.0645 -77.4414 12.4512 -73.6816 12.4512 -66.1621 L 12.4512 5.85938 C 12.4512 13.3789 16.0645 17.0898 23.584 17.0898 L 94.3359 17.0898 C 101.758 17.0898 105.42 13.3789 105.42 5.85938 L 105.42 -31.0059 Z M 82.7637 -83.5938 L 93.5059 -83.5938 C 96.582 -83.5938 98.0469 -82.0312 98.0469 -79.1504 L 98.0469 5.27344 C 98.0469 8.1543 96.582 9.7168 93.5059 9.7168 L 78.2227 9.7168 L 78.2227 -79.1504 C 78.2227 -82.0312 79.7363 -83.5938 82.7637 -83.5938 Z M 117.041 5.76172 L 108.789 -66.0645 C 108.447 -68.9453 109.766 -70.5566 112.793 -70.9961 L 119.043 -71.7773 C 122.07 -72.2168 123.73 -70.7031 124.072 -67.9199 L 132.324 3.90625 C 132.666 6.83594 131.348 8.39844 128.369 8.83789 L 122.021 9.66797 C 119.043 10.1074 117.383 8.69141 117.041 5.76172 Z M 24.3652 9.7168 C 21.3379 9.7168 19.8242 8.1543 19.8242 5.27344 L 19.8242 -65.625 C 19.8242 -68.5059 21.3379 -70.0684 24.3652 -70.0684 L 28.9551 -70.0684 C 31.9824 -70.0684 33.4473 -68.5059 33.4473 -65.625 L 33.4473 9.7168 Z M 45.3613 -53.3691 L 66.3086 -53.3691 C 69.3848 -53.3691 70.8496 -51.8066 70.8496 -48.9258 L 70.8496 9.7168 L 40.8203 9.7168 L 40.8203 -48.9258 C 40.8203 -51.8066 42.334 -53.3691 45.3613 -53.3691 Z M 48.3398 -40.8691 L 63.4766 -40.8691 C 65.1855 -40.8691 66.4551 -42.1875 66.4551 -43.8965 C 66.4551 -45.5566 65.1855 -46.875 63.4766 -46.875 L 48.3398 -46.875 C 46.5332 -46.875 45.2637 -45.5566 45.2637 -43.8965 C 45.2637 -42.1875 46.5332 -40.8691 48.3398 -40.8691 Z M 48.3398 3.27148 L 63.4766 3.27148 C 65.1855 3.27148 66.4551 1.95312 66.4551 0.244141 C 66.4551 -1.41602 65.1855 -2.73438 63.4766 -2.73438 L 48.3398 -2.73438 C 46.5332 -2.73438 45.2637 -1.41602 45.2637 0.244141 C 45.2637 1.95312 46.5332 3.27148 48.3398 3.27148 Z"/>
  </g>
  <g id="Light-M" transform="matrix(1 0 0 1 1079.94 1126)">
   <path d="M 105.811 8.49609 C 106.543 14.7461 109.814 17.7246 116.309 16.8945 L 125.439 15.918 C 131.885 15.0879 134.521 11.6699 133.838 5.37109 L 126.074 -68.0664 C 125.391 -74.3164 122.07 -77.3438 115.576 -76.5137 L 106.445 -75.4883 C 104.346 -75.2441 102.686 -74.707 101.416 -73.9258 L 101.416 -79.8828 C 101.416 -86.2305 98.3887 -89.4531 91.8945 -89.4531 L 78.9062 -89.4531 C 72.4121 -89.4531 69.3848 -86.2305 69.3848 -79.8828 L 69.3848 -59.9121 C 68.3105 -60.2539 67.041 -60.4004 65.625 -60.4004 L 42.9199 -60.4004 C 41.4551 -60.4004 40.2344 -60.2539 39.1113 -59.9121 L 39.1113 -67.334 C 39.1113 -73.6816 36.084 -76.9043 29.6387 -76.9043 L 21.9727 -76.9043 C 15.4785 -76.9043 12.4512 -73.6816 12.4512 -67.334 L 12.4512 7.22656 C 12.4512 13.5742 15.4785 16.8457 21.9727 16.8457 L 91.8945 16.8457 C 98.3887 16.8457 101.416 13.5742 101.416 7.22656 L 101.416 -33.2031 Z M 79.4434 -83.7402 L 91.3574 -83.7402 C 94.3359 -83.7402 95.7031 -82.3242 95.7031 -79.4434 L 95.7031 6.78711 C 95.7031 9.7168 94.3359 11.1328 91.3574 11.1328 L 75.0977 11.1328 L 75.0977 -79.4434 C 75.0977 -82.3242 76.4648 -83.7402 79.4434 -83.7402 Z M 22.5098 11.1328 C 19.5312 11.1328 18.1641 9.7168 18.1641 6.78711 L 18.1641 -66.9434 C 18.1641 -69.7754 19.5312 -71.1914 22.5098 -71.1914 L 29.0527 -71.1914 C 32.0312 -71.1914 33.3984 -69.7754 33.3984 -66.9434 L 33.3984 11.1328 Z M 111.426 7.37305 L 103.76 -65.1855 C 103.467 -68.0664 104.688 -69.5312 107.617 -69.9219 L 115.674 -70.8008 C 118.652 -71.1426 120.166 -69.8242 120.459 -66.9922 L 128.125 5.56641 C 128.418 8.49609 127.246 9.91211 124.268 10.3027 L 116.211 11.1816 C 113.232 11.5234 111.719 10.2539 111.426 7.37305 Z M 43.457 -54.6875 L 65.0391 -54.6875 C 68.0176 -54.6875 69.3848 -53.2715 69.3848 -50.3906 L 69.3848 11.1328 L 39.1113 11.1328 L 39.1113 -50.3906 C 39.1113 -53.2715 40.4785 -54.6875 43.457 -54.6875 Z M 46.4355 -43.0176 L 62.1094 -43.0176 C 63.5254 -43.0176 64.5508 -44.0918 64.5508 -45.459 C 64.5508 -46.8262 63.5254 -47.8516 62.1094 -47.8516 L 46.4355 -47.8516 C 45.0195 -47.8516 43.9941 -46.8262 43.9941 -45.459 C 43.9941 -44.0918 45.0195 -43.0176 46.4355 -43.0176 Z M 46.4355 4.29688 L 62.1094 4.29688 C 63.5254 4.29688 64.5508 3.22266 64.5508 1.85547 C 64.5508 0.537109 63.5254 -0.488281 62.1094 -0.488281 L 46.4355 -0.488281 C 45.0195 -0.488281 43.9941 0.537109 43.9941 1.85547 C 43.9941 3.22266 45.0195 4.29688 46.4355 4.29688 Z"/>
  </g>
  <g id="Thin-M" transform="matrix(1 0 0 1 787.111 1126)">
   <path d="M 100.537 10.1074 C 101.025 14.8438 103.418 17.2363 108.545 16.6992 L 119.482 15.7227 C 124.609 15.1855 126.562 12.4512 126.074 7.61719 L 119.189 -66.3574 C 118.75 -71.1426 116.26 -73.5352 111.133 -72.998 L 100.195 -71.9727 C 98.4863 -71.7773 97.1191 -71.3867 96.0938 -70.7031 L 96.0938 -80.0781 C 96.0938 -84.9121 93.8477 -87.5 88.7207 -87.5 L 74.8047 -87.5 C 69.6777 -87.5 67.4805 -84.9121 67.4805 -80.0781 L 67.4805 -59.2773 C 66.4062 -59.7168 65.1367 -59.9609 63.623 -59.9609 L 40.6738 -59.9609 C 39.1602 -59.9609 37.8906 -59.7168 36.8164 -59.2773 L 36.8164 -68.8965 C 36.8164 -73.6816 34.5703 -76.2695 29.4922 -76.2695 L 19.8242 -76.2695 C 14.6973 -76.2695 12.4512 -73.6816 12.4512 -68.8965 L 12.4512 9.08203 C 12.4512 13.916 14.6973 16.4551 19.8242 16.4551 L 88.7207 16.4551 C 93.8477 16.4551 96.0938 13.916 96.0938 9.08203 L 96.0938 -37.0605 Z M 75.0977 -83.9355 L 88.4766 -83.9355 C 91.3574 -83.9355 92.5781 -82.7637 92.5781 -79.8828 L 92.5781 8.83789 C 92.5781 11.7188 91.3574 12.9395 88.4766 12.9395 L 70.9961 12.9395 L 70.9961 -79.8828 C 70.9961 -82.7637 72.168 -83.9355 75.0977 -83.9355 Z M 20.0684 12.9395 C 17.1875 12.9395 15.9668 11.7188 15.9668 8.83789 L 15.9668 -68.6523 C 15.9668 -71.5332 17.1875 -72.7539 20.0684 -72.7539 L 29.1992 -72.7539 C 32.1289 -72.7539 33.3008 -71.5332 33.3008 -68.6523 L 33.3008 12.9395 Z M 103.955 9.47266 L 97.1191 -64.0625 C 96.8262 -66.8945 97.9492 -68.2129 100.83 -68.5059 L 111.279 -69.4824 C 114.16 -69.7754 115.43 -68.6035 115.723 -65.8203 L 122.559 7.76367 C 122.852 10.6445 121.777 11.9141 118.896 12.207 L 108.447 13.1836 C 105.566 13.4766 104.248 12.3535 103.955 9.47266 Z M 40.918 -56.4453 L 63.3301 -56.4453 C 66.2598 -56.4453 67.4805 -55.2246 67.4805 -52.3438 L 67.4805 12.9395 L 36.8164 12.9395 L 36.8164 -52.3438 C 36.8164 -55.2246 38.0371 -56.4453 40.918 -56.4453 Z M 43.9453 -45.9473 L 60.3516 -45.9473 C 61.2793 -45.9473 62.0117 -46.6309 62.0117 -47.5586 C 62.0117 -48.4375 61.2793 -49.1699 60.3516 -49.1699 L 43.9453 -49.1699 C 43.0176 -49.1699 42.2852 -48.4375 42.2852 -47.5586 C 42.2852 -46.6309 43.0176 -45.9473 43.9453 -45.9473 Z M 43.9453 5.66406 L 60.3516 5.66406 C 61.2793 5.66406 62.0117 4.93164 62.0117 4.05273 C 62.0117 3.17383 61.2793 2.44141 60.3516 2.44141 L 43.9453 2.44141 C 43.0176 2.44141 42.2852 3.17383 42.2852 4.05273 C 42.2852 4.93164 43.0176 5.66406 43.9453 5.66406 Z"/>
  </g>
  <g id="Ultralight-M" transform="matrix(1 0 0 1 492.402 1126)">
   <path d="M 97.8027 10.9375 C 98.1445 14.8926 100.146 16.9434 104.541 16.6016 L 116.406 15.5762 C 120.85 15.2344 122.51 12.8418 122.119 8.78906 L 115.674 -65.4785 C 115.332 -69.5312 113.281 -71.582 108.887 -71.1914 L 97.0215 -70.1172 C 95.459 -70.0195 94.2871 -69.6289 93.3594 -69.043 L 93.3594 -80.2246 C 93.3594 -84.2773 91.5527 -86.4746 87.1094 -86.4746 L 72.7539 -86.4746 C 68.3105 -86.4746 66.4551 -84.2773 66.4551 -80.2246 L 66.4551 -58.8379 C 65.5273 -59.4238 64.209 -59.7168 62.5977 -59.7168 L 39.5508 -59.7168 C 37.8906 -59.7168 36.6211 -59.4238 35.6445 -58.8379 L 35.6445 -69.6777 C 35.6445 -73.7305 33.8379 -75.9277 29.3945 -75.9277 L 18.7012 -75.9277 C 14.3066 -75.9277 12.4512 -73.7305 12.4512 -69.6777 L 12.4512 10.0098 C 12.4512 14.0625 14.3066 16.2598 18.7012 16.2598 L 87.1094 16.2598 C 91.5527 16.2598 93.3594 14.0625 93.3594 10.0098 L 93.3594 -39.5996 Z M 72.8516 -84.082 L 87.0117 -84.082 C 89.8438 -84.082 90.9668 -82.959 90.9668 -80.0781 L 90.9668 9.86328 C 90.9668 12.7441 89.8438 13.8672 87.0117 13.8672 L 68.8477 13.8672 L 68.8477 -80.0781 C 68.8477 -82.959 69.9707 -84.082 72.8516 -84.082 Z M 18.8477 13.8672 C 15.9668 13.8672 14.8438 12.7441 14.8438 9.86328 L 14.8438 -69.5312 C 14.8438 -72.4121 15.9668 -73.5352 18.8477 -73.5352 L 29.2969 -73.5352 C 32.1289 -73.5352 33.252 -72.4121 33.252 -69.5312 L 33.252 13.8672 Z M 100.146 10.5957 L 93.7012 -63.4277 C 93.457 -66.3086 94.4824 -67.5293 97.3633 -67.7734 L 108.984 -68.7988 C 111.865 -69.043 113.037 -67.9688 113.281 -65.1855 L 119.727 8.88672 C 119.971 11.7676 118.994 12.9395 116.113 13.1836 L 104.492 14.1602 C 101.611 14.4531 100.391 13.4277 100.146 10.5957 Z M 39.6484 -57.3242 L 62.5 -57.3242 C 65.332 -57.3242 66.4551 -56.2012 66.4551 -53.3691 L 66.4551 13.8672 L 35.6445 13.8672 L 35.6445 -53.3691 C 35.6445 -56.2012 36.7676 -57.3242 39.6484 -57.3242 Z M 42.6758 -47.4121 L 59.4238 -47.4121 C 60.1562 -47.4121 60.6934 -47.9492 60.6934 -48.6328 C 60.6934 -49.2676 60.1562 -49.8535 59.4238 -49.8535 L 42.6758 -49.8535 C 41.9922 -49.8535 41.4062 -49.2676 41.4062 -48.6328 C 41.4062 -47.9492 41.9922 -47.4121 42.6758 -47.4121 Z M 42.6758 6.34766 L 59.4238 6.34766 C 60.1562 6.34766 60.6934 5.81055 60.6934 5.17578 C 60.6934 4.49219 60.1562 3.95508 59.4238 3.95508 L 42.6758 3.95508 C 41.9922 3.95508 41.4062 4.49219 41.4062 5.17578 C 41.4062 5.81055 41.9922 6.34766 42.6758 6.34766 Z"/>
  </g>
  <g id="Black-S" transform="matrix(1 0 0 1 2862.67 696)">
   <path d="M 107.129 8.93555 L 119.971 7.8125 C 128.32 7.08008 132.324 2.29492 131.592 -6.05469 L 127.295 -55.2734 C 126.562 -63.623 121.777 -67.627 113.428 -66.8945 L 100.586 -65.7715 C 99.6094 -65.6738 98.6816 -65.5273 97.8516 -65.332 L 97.8516 -65.7715 C 97.8516 -74.1699 93.457 -78.5645 85.0586 -78.5645 L 72.168 -78.5645 C 63.7695 -78.5645 59.375 -74.1699 59.375 -65.7715 L 59.375 -50.9766 L 44.3359 -50.9766 L 44.3359 -54.0527 C 44.3359 -62.4512 39.9414 -66.8457 31.543 -66.8457 L 22.5586 -66.8457 C 14.1602 -66.8457 9.76562 -62.4512 9.76562 -54.0527 L 9.76562 -4.63867 C 9.76562 3.75977 14.1602 8.1543 22.5586 8.1543 L 85.0586 8.1543 C 89.7461 8.1543 93.1641 6.78711 95.3125 4.15039 C 97.5586 7.8125 101.514 9.42383 107.129 8.93555 Z M 75.4883 -64.4043 L 81.7383 -64.4043 C 83.0078 -64.4043 83.6914 -63.7207 83.6914 -62.4512 L 83.6914 -7.95898 C 83.6914 -6.68945 83.0078 -6.00586 81.7383 -6.00586 L 73.5352 -6.00586 L 73.5352 -62.4512 C 73.5352 -63.7207 74.2188 -64.4043 75.4883 -64.4043 Z M 25.8789 -6.00586 C 24.6094 -6.00586 23.9258 -6.68945 23.9258 -7.95898 L 23.9258 -50.7324 C 23.9258 -52.002 24.6094 -52.6855 25.8789 -52.6855 L 28.2227 -52.6855 C 29.4922 -52.6855 30.1758 -52.002 30.1758 -50.7324 L 30.1758 -6.00586 Z M 107.08 -7.22656 L 103.369 -49.8535 C 103.271 -51.123 103.857 -51.8555 105.127 -51.9531 L 111.377 -52.4902 C 112.646 -52.5879 113.379 -52.002 113.477 -50.7324 L 117.188 -8.10547 C 117.285 -6.88477 116.699 -6.10352 115.43 -6.00586 L 109.18 -5.46875 C 107.959 -5.37109 107.178 -5.95703 107.08 -7.22656 Z M 46.2891 -36.8164 L 57.4219 -36.8164 C 58.6914 -36.8164 59.375 -36.1328 59.375 -34.8633 L 59.375 -6.00586 L 44.3359 -6.00586 L 44.3359 -34.8633 C 44.3359 -36.1328 45.0195 -36.8164 46.2891 -36.8164 Z M 49.0234 -27.9297 L 55.127 -27.9297 C 56.7871 -27.9297 58.0566 -29.248 58.0566 -30.8594 C 58.0566 -32.5684 56.7871 -33.8867 55.127 -33.8867 L 49.0234 -33.8867 C 47.3145 -33.8867 46.0449 -32.5684 46.0449 -30.8594 C 46.0449 -29.248 47.3633 -27.9297 49.0234 -27.9297 Z M 49.0234 -8.93555 L 55.127 -8.93555 C 56.7871 -8.93555 58.0566 -10.2539 58.0566 -11.9141 C 58.0566 -13.5742 56.7871 -14.9414 55.127 -14.9414 L 49.0234 -14.9414 C 47.3633 -14.9414 46.0449 -13.5742 46.0449 -11.9141 C 46.0449 -10.2539 47.3145 -8.93555 49.0234 -8.93555 Z"/>
  </g>
  <g id="Heavy-S" transform="matrix(1 0 0 1 2568.23 696)">
   <path d="M 105.127 8.20312 L 116.211 7.17773 C 124.072 6.39648 127.783 1.95312 127.051 -5.95703 L 122.119 -56.9824 C 121.387 -64.8926 116.895 -68.6523 109.033 -67.8711 L 97.9492 -66.7969 C 96.7773 -66.6992 95.7031 -66.5039 94.7266 -66.2109 L 94.7266 -66.748 C 94.7266 -74.707 90.625 -78.8086 82.7148 -78.8086 L 70.6543 -78.8086 C 62.7441 -78.8086 58.6426 -74.707 58.6426 -66.748 L 58.6426 -52.002 L 41.6016 -52.002 L 41.6016 -55.2246 C 41.6016 -63.1348 37.5488 -67.2363 29.6387 -67.2363 L 21.7773 -67.2363 C 13.8672 -67.2363 9.76562 -63.1348 9.76562 -55.2246 L 9.76562 -4.39453 C 9.76562 3.51562 13.8672 7.61719 21.7773 7.61719 L 82.7148 7.61719 C 87.8906 7.61719 91.4062 5.85938 93.2617 2.44141 C 95.166 6.78711 99.1699 8.78906 105.127 8.20312 Z M 73.3398 -66.4551 L 79.9805 -66.4551 C 81.543 -66.4551 82.3242 -65.625 82.3242 -64.1113 L 82.3242 -7.08008 C 82.3242 -5.56641 81.543 -4.73633 79.9805 -4.73633 L 70.9961 -4.73633 L 70.9961 -64.1113 C 70.9961 -65.625 71.8262 -66.4551 73.3398 -66.4551 Z M 104.102 -6.44531 L 99.6582 -52.1973 C 99.5117 -53.7109 100.244 -54.5898 101.758 -54.7363 L 107.471 -55.2734 C 109.033 -55.4688 109.912 -54.6875 110.059 -53.2227 L 114.453 -7.4707 C 114.6 -6.00586 113.916 -5.07812 112.402 -4.93164 L 106.641 -4.3457 C 105.176 -4.19922 104.248 -4.93164 104.102 -6.44531 Z M 24.4629 -4.73633 C 22.9492 -4.73633 22.1191 -5.56641 22.1191 -7.08008 L 22.1191 -52.5391 C 22.1191 -54.0527 22.9492 -54.8828 24.4629 -54.8828 L 26.9043 -54.8828 C 28.4668 -54.8828 29.248 -54.0527 29.248 -52.5391 L 29.248 -4.73633 Z M 43.9941 -39.6484 L 56.2988 -39.6484 C 57.8125 -39.6484 58.6426 -38.8184 58.6426 -37.3047 L 58.6426 -4.73633 L 41.6016 -4.73633 L 41.6016 -37.3047 C 41.6016 -38.8184 42.4316 -39.6484 43.9941 -39.6484 Z M 46.582 -30.4199 L 54.0039 -30.4199 C 55.6152 -30.4199 56.8848 -31.7383 56.8848 -33.3008 C 56.8848 -34.9609 55.6152 -36.2305 54.0039 -36.2305 L 46.582 -36.2305 C 44.9219 -36.2305 43.7012 -34.9609 43.7012 -33.3008 C 43.7012 -31.7383 44.9707 -30.4199 46.582 -30.4199 Z M 46.582 -8.1543 L 54.0039 -8.1543 C 55.6152 -8.1543 56.8848 -9.42383 56.8848 -11.0352 C 56.8848 -12.6465 55.6152 -13.9648 54.0039 -13.9648 L 46.582 -13.9648 C 44.9707 -13.9648 43.7012 -12.6465 43.7012 -11.0352 C 43.7012 -9.42383 44.9219 -8.1543 46.582 -8.1543 Z"/>
  </g>
  <g id="Bold-S" transform="matrix(1 0 0 1 2274.08 696)">
   <path d="M 102.832 7.37305 L 112.012 6.44531 C 119.336 5.61523 122.656 1.51367 121.924 -5.81055 L 116.357 -58.9355 C 115.625 -66.2598 111.475 -69.7754 104.15 -68.9453 L 94.9707 -67.9688 C 93.5547 -67.8223 92.2852 -67.5293 91.2109 -67.1387 L 91.2109 -67.8711 C 91.2109 -75.293 87.4512 -79.1016 80.0781 -79.1016 L 68.9453 -79.1016 C 61.5723 -79.1016 57.8125 -75.293 57.8125 -67.8711 L 57.8125 -53.1738 C 57.5684 -53.1738 57.2754 -53.1738 57.0312 -53.1738 L 39.3555 -53.1738 C 39.1113 -53.1738 38.8672 -53.1738 38.5742 -53.1738 L 38.5742 -56.4941 C 38.5742 -63.916 34.8145 -67.6758 27.4414 -67.6758 L 20.8984 -67.6758 C 13.5254 -67.6758 9.76562 -63.916 9.76562 -56.4941 L 9.76562 -4.15039 C 9.76562 3.22266 13.5254 7.03125 20.8984 7.03125 L 80.0781 7.03125 C 86.2305 7.03125 89.8926 4.39453 90.918 -0.830078 C 92.0898 5.27344 96.0938 8.1543 102.832 7.37305 Z M 70.9473 -68.7012 L 78.0273 -68.7012 C 79.8828 -68.7012 80.8105 -67.7246 80.8105 -65.9668 L 80.8105 -6.10352 C 80.8105 -4.3457 79.8828 -3.32031 78.0273 -3.32031 L 68.1641 -3.32031 L 68.1641 -65.9668 C 68.1641 -67.7246 69.1406 -68.7012 70.9473 -68.7012 Z M 100.781 -5.56641 L 95.5566 -54.834 C 95.3613 -56.5918 96.1426 -57.6172 97.998 -57.8613 L 103.125 -58.3984 C 104.98 -58.6426 106.006 -57.7637 106.201 -56.0059 L 111.426 -6.73828 C 111.621 -4.98047 110.791 -3.95508 108.984 -3.71094 L 103.809 -3.125 C 102.002 -2.88086 100.977 -3.75977 100.781 -5.56641 Z M 22.9492 -3.32031 C 21.0938 -3.32031 20.1172 -4.3457 20.1172 -6.10352 L 20.1172 -54.5898 C 20.1172 -56.3477 21.0938 -57.3242 22.9492 -57.3242 L 25.4395 -57.3242 C 27.2949 -57.3242 28.2227 -56.3477 28.2227 -54.5898 L 28.2227 -3.32031 Z M 41.3574 -42.8223 L 54.9805 -42.8223 C 56.8359 -42.8223 57.8125 -41.7969 57.8125 -40.0391 L 57.8125 -3.32031 L 38.5742 -3.32031 L 38.5742 -40.0391 C 38.5742 -41.7969 39.5508 -42.8223 41.3574 -42.8223 Z M 43.8965 -33.252 L 52.7344 -33.252 C 54.3457 -33.252 55.5176 -34.5215 55.5176 -36.084 C 55.5176 -37.6465 54.3457 -38.8672 52.7344 -38.8672 L 43.8965 -38.8672 C 42.2852 -38.8672 41.0645 -37.6465 41.0645 -36.084 C 41.0645 -34.5215 42.2852 -33.252 43.8965 -33.252 Z M 43.8965 -7.22656 L 52.7344 -7.22656 C 54.3457 -7.22656 55.5176 -8.49609 55.5176 -10.0586 C 55.5176 -11.6211 54.3457 -12.8906 52.7344 -12.8906 L 43.8965 -12.8906 C 42.2852 -12.8906 41.0645 -11.6211 41.0645 -10.0586 C 41.0645 -8.49609 42.2852 -7.22656 43.8965 -7.22656 Z"/>
  </g>
  <g id="Semibold-S" transform="matrix(1 0 0 1 1979.11 696)">
   <path d="M 89.6973 -2.58789 C 90.4297 4.39453 94.2871 7.71484 101.27 6.83594 L 109.082 5.9082 C 116.064 5.07812 119.189 1.26953 118.408 -5.76172 L 112.354 -60.2539 C 111.621 -67.2363 107.715 -70.5566 100.732 -69.6777 L 92.9199 -68.7988 C 91.3574 -68.6035 89.9414 -68.2617 88.7695 -67.7246 L 88.7695 -68.6523 C 88.7695 -75.6836 85.2539 -79.2969 78.2227 -79.2969 L 67.7734 -79.2969 C 60.7422 -79.2969 57.2266 -75.6836 57.2266 -68.6523 L 57.2266 -53.9062 C 56.7383 -53.9551 56.2012 -53.9551 55.6641 -53.9551 L 38.0371 -53.9551 C 37.5 -53.9551 37.0117 -53.9551 36.4746 -53.9062 L 36.4746 -57.373 C 36.4746 -64.4043 32.959 -67.9688 25.9766 -67.9688 L 20.3125 -67.9688 C 13.2812 -67.9688 9.76562 -64.4043 9.76562 -57.373 L 9.76562 -4.00391 C 9.76562 3.02734 13.2812 6.64062 20.3125 6.64062 L 78.2227 6.64062 C 85.2539 6.64062 88.7695 3.02734 88.7695 -4.00391 L 88.7695 -10.6934 Z M 69.3359 -70.2637 L 76.6602 -70.2637 C 78.7598 -70.2637 79.7852 -69.1895 79.7852 -67.2363 L 79.7852 -5.41992 C 79.7852 -3.4668 78.7598 -2.34375 76.6602 -2.34375 L 66.2109 -2.34375 L 66.2109 -67.2363 C 66.2109 -69.1895 67.2852 -70.2637 69.3359 -70.2637 Z M 98.4375 -4.98047 L 92.6758 -56.6406 C 92.4316 -58.5938 93.3594 -59.7168 95.4102 -60.0098 L 100.146 -60.5957 C 102.148 -60.8887 103.369 -59.8145 103.564 -57.9102 L 109.375 -6.25 C 109.57 -4.29688 108.691 -3.125 106.641 -2.83203 L 101.855 -2.29492 C 99.8535 -2.00195 98.6816 -2.97852 98.4375 -4.98047 Z M 21.875 -2.34375 C 19.8242 -2.34375 18.75 -3.4668 18.75 -5.41992 L 18.75 -55.957 C 18.75 -57.9102 19.8242 -58.9844 21.875 -58.9844 L 24.4141 -58.9844 C 26.4648 -58.9844 27.4902 -57.9102 27.4902 -55.957 L 27.4902 -2.34375 Z M 39.5996 -44.9707 L 54.1016 -44.9707 C 56.2012 -44.9707 57.2266 -43.8965 57.2266 -41.9434 L 57.2266 -2.34375 L 36.4746 -2.34375 L 36.4746 -41.9434 C 36.4746 -43.8965 37.5488 -44.9707 39.5996 -44.9707 Z M 42.041 -35.2051 L 51.9043 -35.2051 C 53.4668 -35.2051 54.6387 -36.4258 54.6387 -37.9395 C 54.6387 -39.502 53.4668 -40.6738 51.9043 -40.6738 L 42.041 -40.6738 C 40.4297 -40.6738 39.2578 -39.502 39.2578 -37.9395 C 39.2578 -36.4258 40.4297 -35.2051 42.041 -35.2051 Z M 42.041 -6.64062 L 51.9043 -6.64062 C 53.4668 -6.64062 54.6387 -7.86133 54.6387 -9.42383 C 54.6387 -10.9375 53.4668 -12.1582 51.9043 -12.1582 L 42.041 -12.1582 C 40.4297 -12.1582 39.2578 -10.9375 39.2578 -9.42383 C 39.2578 -7.86133 40.4297 -6.64062 42.041 -6.64062 Z"/>
  </g>
  <g id="Medium-S" transform="matrix(1 0 0 1 1683.74 696)">
   <path d="M 88.9648 -2.58789 C 89.7461 4.15039 93.4082 7.27539 100.098 6.39648 L 106.885 5.56641 C 113.623 4.63867 116.504 1.02539 115.771 -5.66406 L 109.326 -61.2793 C 108.594 -67.9688 104.883 -71.1426 98.1934 -70.2148 L 91.3574 -69.3848 C 89.6484 -69.1406 88.1836 -68.75 86.9141 -68.1641 L 86.9141 -69.2383 C 86.9141 -76.0254 83.5938 -79.3945 76.8555 -79.3945 L 66.8945 -79.3945 C 60.1562 -79.3945 56.7871 -76.0254 56.7871 -69.2383 L 56.7871 -54.4434 C 56.1035 -54.541 55.4199 -54.5898 54.6875 -54.5898 L 37.0605 -54.5898 C 36.3281 -54.5898 35.5957 -54.541 34.9121 -54.4434 L 34.9121 -58.0566 C 34.9121 -64.7949 31.543 -68.2129 24.8535 -68.2129 L 19.873 -68.2129 C 13.1348 -68.2129 9.76562 -64.7949 9.76562 -58.0566 L 9.76562 -3.85742 C 9.76562 2.92969 13.1348 6.29883 19.873 6.29883 L 76.8555 6.29883 C 83.5938 6.29883 86.9141 2.92969 86.9141 -3.85742 L 86.9141 -19.9219 Z M 68.0664 -71.4844 L 75.6348 -71.4844 C 77.8809 -71.4844 79.0039 -70.2637 79.0039 -68.2129 L 79.0039 -4.93164 C 79.0039 -2.83203 77.8809 -1.61133 75.6348 -1.61133 L 64.7461 -1.61133 L 64.7461 -68.2129 C 64.7461 -70.2637 65.8691 -71.4844 68.0664 -71.4844 Z M 96.7285 -4.49219 L 90.5273 -58.0078 C 90.2832 -60.1074 91.2598 -61.2793 93.4082 -61.6211 L 97.8516 -62.207 C 100.049 -62.5488 101.318 -61.4258 101.562 -59.375 L 107.764 -5.85938 C 108.008 -3.75977 107.031 -2.53906 104.883 -2.19727 L 100.391 -1.61133 C 98.1934 -1.31836 96.9727 -2.39258 96.7285 -4.49219 Z M 21.0449 -1.61133 C 18.8477 -1.61133 17.7246 -2.83203 17.7246 -4.93164 L 17.7246 -57.0312 C 17.7246 -59.082 18.8477 -60.3027 21.0449 -60.3027 L 23.6328 -60.3027 C 25.8789 -60.3027 26.9531 -59.082 26.9531 -57.0312 L 26.9531 -1.61133 Z M 38.2324 -46.6309 L 53.4668 -46.6309 C 55.6641 -46.6309 56.7871 -45.459 56.7871 -43.3594 L 56.7871 -1.61133 L 34.9121 -1.61133 L 34.9121 -43.3594 C 34.9121 -45.459 36.0352 -46.6309 38.2324 -46.6309 Z M 40.625 -36.6699 L 51.2207 -36.6699 C 52.7832 -36.6699 53.9062 -37.8418 53.9062 -39.4043 C 53.9062 -40.918 52.7832 -42.041 51.2207 -42.041 L 40.625 -42.041 C 39.0137 -42.041 37.8906 -40.918 37.8906 -39.4043 C 37.8906 -37.8418 39.0625 -36.6699 40.625 -36.6699 Z M 40.625 -6.15234 L 51.2207 -6.15234 C 52.7832 -6.15234 53.9062 -7.37305 53.9062 -8.88672 C 53.9062 -10.4004 52.7832 -11.5723 51.2207 -11.5723 L 40.625 -11.5723 C 39.0625 -11.5723 37.8906 -10.4004 37.8906 -8.88672 C 37.8906 -7.37305 39.0137 -6.15234 40.625 -6.15234 Z"/>
  </g>
  <g id="Regular-S" transform="matrix(1 0 0 1 1388.76 696)">
   <path d="M 87.9883 -2.53906 C 88.8184 3.80859 92.2363 6.78711 98.5352 5.81055 L 104.053 5.0293 C 110.352 4.10156 113.037 0.78125 112.256 -5.61523 L 105.371 -62.5977 C 104.639 -68.8965 101.172 -71.9238 94.8242 -70.9961 L 89.3555 -70.166 C 87.4023 -69.9219 85.791 -69.3848 84.5215 -68.6523 L 84.5215 -70.0195 C 84.5215 -76.416 81.3965 -79.5898 75.0488 -79.5898 L 65.7227 -79.5898 C 59.3262 -79.5898 56.2012 -76.416 56.2012 -70.0195 L 56.2012 -55.127 C 55.3223 -55.2734 54.3945 -55.3711 53.3203 -55.3711 L 35.791 -55.3711 C 34.7168 -55.3711 33.7402 -55.2734 32.8613 -55.0781 L 32.8613 -58.9355 C 32.8613 -65.332 29.6875 -68.5059 23.3887 -68.5059 L 19.2871 -68.5059 C 12.8906 -68.5059 9.76562 -65.332 9.76562 -58.9355 L 9.76562 -3.71094 C 9.76562 2.73438 12.8906 5.9082 19.2871 5.9082 L 75.0488 5.9082 C 81.3965 5.9082 84.5215 2.73438 84.5215 -3.71094 L 84.5215 -31.0547 Z M 66.4551 -73.0469 L 74.3164 -73.0469 C 76.7578 -73.0469 77.9785 -71.7285 77.9785 -69.4824 L 77.9785 -4.24805 C 77.9785 -1.95312 76.7578 -0.683594 74.3164 -0.683594 L 62.793 -0.683594 L 62.793 -69.4824 C 62.793 -71.7285 64.0625 -73.0469 66.4551 -73.0469 Z M 94.4336 -3.90625 L 87.6953 -59.8145 C 87.4023 -62.0605 88.4766 -63.3789 90.8691 -63.7695 L 94.873 -64.3555 C 97.2656 -64.7461 98.6816 -63.4766 98.9746 -61.2793 L 105.713 -5.37109 C 106.006 -3.07617 104.932 -1.75781 102.539 -1.36719 L 98.4375 -0.78125 C 96.0938 -0.390625 94.7266 -1.61133 94.4336 -3.90625 Z M 19.9707 -0.683594 C 17.5781 -0.683594 16.3574 -1.95312 16.3574 -4.24805 L 16.3574 -58.3984 C 16.3574 -60.6445 17.5781 -61.9629 19.9707 -61.9629 L 22.6074 -61.9629 C 25.0488 -61.9629 26.2695 -60.6445 26.2695 -58.3984 L 26.2695 -0.683594 Z M 36.4746 -48.7793 L 52.5879 -48.7793 C 55.0293 -48.7793 56.2012 -47.5098 56.2012 -45.2637 L 56.2012 -0.683594 L 32.8613 -0.683594 L 32.8613 -45.2637 C 32.8613 -47.5098 34.082 -48.7793 36.4746 -48.7793 Z M 38.7695 -38.5742 L 50.3906 -38.5742 C 51.9043 -38.5742 53.0273 -39.7461 53.0273 -41.2598 C 53.0273 -42.7246 51.9043 -43.8477 50.3906 -43.8477 L 38.7695 -43.8477 C 37.207 -43.8477 36.084 -42.7246 36.084 -41.2598 C 36.084 -39.7461 37.207 -38.5742 38.7695 -38.5742 Z M 38.7695 -5.56641 L 50.3906 -5.56641 C 51.9043 -5.56641 53.0273 -6.73828 53.0273 -8.25195 C 53.0273 -9.7168 51.9043 -10.8398 50.3906 -10.8398 L 38.7695 -10.8398 C 37.207 -10.8398 36.084 -9.7168 36.084 -8.25195 C 36.084 -6.73828 37.207 -5.56641 38.7695 -5.56641 Z"/>
  </g>
  <g id="Light-S" transform="matrix(1 0 0 1 1094.66 696)">
   <path d="M 84.4727 -1.46484 C 85.1074 3.90625 87.9395 6.44531 93.3594 5.66406 L 100.049 4.88281 C 105.469 4.15039 107.715 1.26953 107.08 -4.10156 L 100.781 -61.4258 C 100.195 -66.7969 97.3145 -69.3359 91.8457 -68.6035 L 85.2051 -67.8223 C 83.4961 -67.5781 82.0801 -67.1387 81.0059 -66.5039 L 81.0059 -70.166 C 81.0059 -75.5371 78.3691 -78.2715 72.9492 -78.2715 L 62.9883 -78.2715 C 57.5195 -78.2715 54.9316 -75.5371 54.9316 -70.166 L 54.9316 -54.7363 C 54.0527 -54.9805 53.0762 -55.0781 52.002 -55.0781 L 34.2773 -55.0781 C 33.1543 -55.0781 32.1777 -54.9805 31.2988 -54.7363 L 31.2988 -59.9609 C 31.2988 -65.332 28.7109 -68.0664 23.291 -68.0664 L 17.8223 -68.0664 C 12.3535 -68.0664 9.76562 -65.332 9.76562 -59.9609 L 9.76562 -2.49023 C 9.76562 2.92969 12.3535 5.66406 17.8223 5.66406 L 72.9492 5.66406 C 78.3691 5.66406 81.0059 2.92969 81.0059 -2.49023 L 81.0059 -32.7637 Z M 63.5254 -73.1934 L 72.4121 -73.1934 C 74.7559 -73.1934 75.8789 -72.0215 75.8789 -69.7754 L 75.8789 -2.88086 C 75.8789 -0.634766 74.7559 0.537109 72.4121 0.537109 L 60.0586 0.537109 L 60.0586 -69.7754 C 60.0586 -72.0215 61.1816 -73.1934 63.5254 -73.1934 Z M 89.4531 -2.49023 L 83.252 -59.0332 C 82.959 -61.2793 83.9844 -62.5 86.3281 -62.793 L 91.9434 -63.4766 C 94.2871 -63.7695 95.5078 -62.6953 95.752 -60.498 L 102.002 -3.90625 C 102.246 -1.61133 101.27 -0.439453 98.9258 -0.0976562 L 93.2617 0.537109 C 90.9668 0.878906 89.6973 -0.195312 89.4531 -2.49023 Z M 18.3594 0.537109 C 16.0156 0.537109 14.8926 -0.634766 14.8926 -2.88086 L 14.8926 -59.5703 C 14.8926 -61.8164 16.0156 -62.9883 18.3594 -62.9883 L 22.7051 -62.9883 C 25.0977 -62.9883 26.2207 -61.8164 26.2207 -59.5703 L 26.2207 0.537109 Z M 34.7656 -49.9512 L 51.4648 -49.9512 C 53.8086 -49.9512 54.9316 -48.7793 54.9316 -46.5332 L 54.9316 0.537109 L 31.2988 0.537109 L 31.2988 -46.5332 C 31.2988 -48.7793 32.4219 -49.9512 34.7656 -49.9512 Z M 37.1094 -40.5273 L 49.1699 -40.5273 C 50.3906 -40.5273 51.3184 -41.4551 51.3184 -42.6758 C 51.3184 -43.7988 50.3906 -44.7266 49.1699 -44.7266 L 37.1094 -44.7266 C 35.8887 -44.7266 34.9609 -43.7988 34.9609 -42.6758 C 34.9609 -41.4551 35.8887 -40.5273 37.1094 -40.5273 Z M 37.1094 -4.63867 L 49.1699 -4.63867 C 50.3906 -4.63867 51.3184 -5.56641 51.3184 -6.78711 C 51.3184 -7.95898 50.3906 -8.88672 49.1699 -8.88672 L 37.1094 -8.88672 C 35.8887 -8.88672 34.9609 -7.95898 34.9609 -6.78711 C 34.9609 -5.56641 35.8887 -4.63867 37.1094 -4.63867 Z"/>
  </g>
  <g id="Thin-S" transform="matrix(1 0 0 1 801.369 696)">
   <path d="M 79.7852 -0.0488281 C 80.1758 4.00391 82.2266 5.95703 86.5234 5.51758 L 94.7266 4.73633 C 99.0234 4.24805 100.684 1.95312 100.244 -2.09961 L 94.7266 -59.9609 C 94.2871 -63.9648 92.1875 -65.9668 87.9395 -65.4785 L 79.6875 -64.6973 C 78.2715 -64.502 77.1484 -64.1602 76.3184 -63.623 L 76.3184 -70.3125 C 76.3184 -74.4141 74.4141 -76.5625 70.1172 -76.5625 L 59.4238 -76.5625 C 55.127 -76.5625 53.2227 -74.4141 53.2227 -70.3125 L 53.2227 -54.1992 C 52.3926 -54.541 51.416 -54.6875 50.2441 -54.6875 L 32.3242 -54.6875 C 31.1035 -54.6875 30.127 -54.541 29.2969 -54.1992 L 29.2969 -61.2793 C 29.2969 -65.3809 27.3926 -67.5293 23.1445 -67.5293 L 15.9668 -67.5293 C 11.6699 -67.5293 9.76562 -65.3809 9.76562 -61.2793 L 9.76562 -0.878906 C 9.76562 3.17383 11.6699 5.32227 15.9668 5.32227 L 70.1172 5.32227 C 74.4141 5.32227 76.3184 3.17383 76.3184 -0.878906 L 76.3184 -35.8398 Z M 59.668 -73.3398 L 69.873 -73.3398 C 72.168 -73.3398 73.1445 -72.3633 73.1445 -70.1172 L 73.1445 -1.07422 C 73.1445 1.17188 72.168 2.14844 69.873 2.14844 L 56.3965 2.14844 L 56.3965 -70.1172 C 56.3965 -72.3633 57.373 -73.3398 59.668 -73.3398 Z M 16.2109 2.14844 C 13.916 2.14844 12.9395 1.17188 12.9395 -1.07422 L 12.9395 -61.084 C 12.9395 -63.3301 13.916 -64.3066 16.2109 -64.3066 L 22.8516 -64.3066 C 25.1465 -64.3066 26.123 -63.3301 26.123 -61.084 L 26.123 2.14844 Z M 82.8613 -0.585938 L 77.3438 -58.0078 C 77.1484 -60.2539 78.0273 -61.3281 80.3223 -61.5723 L 88.0371 -62.3047 C 90.2832 -62.5488 91.3574 -61.6211 91.5527 -59.4238 L 97.0703 -1.95312 C 97.3145 0.292969 96.4355 1.31836 94.1895 1.5625 L 86.4258 2.29492 C 84.1797 2.53906 83.1055 1.66016 82.8613 -0.585938 Z M 32.5684 -51.5137 L 49.9512 -51.5137 C 52.2461 -51.5137 53.2227 -50.5371 53.2227 -48.291 L 53.2227 2.14844 L 29.2969 2.14844 L 29.2969 -48.291 C 29.2969 -50.5371 30.2734 -51.5137 32.5684 -51.5137 Z M 34.9121 -43.0664 L 47.6074 -43.0664 C 48.4375 -43.0664 49.0723 -43.7012 49.0723 -44.4824 C 49.0723 -45.2637 48.4375 -45.8984 47.6074 -45.8984 L 34.9121 -45.8984 C 34.082 -45.8984 33.4473 -45.2637 33.4473 -44.4824 C 33.4473 -43.7012 34.082 -43.0664 34.9121 -43.0664 Z M 34.9121 -3.4668 L 47.6074 -3.4668 C 48.4375 -3.4668 49.0723 -4.10156 49.0723 -4.88281 C 49.0723 -5.66406 48.4375 -6.29883 47.6074 -6.29883 L 34.9121 -6.29883 C 34.082 -6.29883 33.4473 -5.66406 33.4473 -4.88281 C 33.4473 -4.10156 34.082 -3.4668 34.9121 -3.4668 Z"/>
  </g>
  <g id="Ultralight-S" transform="matrix(1 0 0 1 506.44 696)">
   <path d="M 77.3438 0.732422 C 77.6855 4.05273 79.3457 5.71289 83.0078 5.37109 L 92.041 4.58984 C 95.7031 4.29688 97.0703 2.29492 96.7285 -1.07422 L 91.6016 -59.1797 C 91.2598 -62.5488 89.5508 -64.209 85.8887 -63.916 L 76.8555 -63.0859 C 75.6348 -62.9395 74.6582 -62.6465 73.877 -62.1582 L 73.877 -70.459 C 73.877 -73.8281 72.3633 -75.6348 68.7012 -75.6348 L 57.5684 -75.6348 C 53.9062 -75.6348 52.3438 -73.8281 52.3438 -70.459 L 52.3438 -53.8574 C 51.5625 -54.2969 50.5859 -54.4922 49.3164 -54.4922 L 31.2988 -54.4922 C 30.0293 -54.4922 29.0527 -54.2969 28.2715 -53.8574 L 28.2715 -62.0117 C 28.2715 -65.3809 26.709 -67.1875 23.0469 -67.1875 L 14.9902 -67.1875 C 11.3281 -67.1875 9.76562 -65.3809 9.76562 -62.0117 L 9.76562 -0.0488281 C 9.76562 3.32031 11.3281 5.17578 14.9902 5.17578 L 68.7012 5.17578 C 72.3633 5.17578 73.877 3.32031 73.877 -0.0488281 L 73.877 -37.9395 Z M 57.666 -73.4863 L 68.5547 -73.4863 C 70.8008 -73.4863 71.7285 -72.5586 71.7285 -70.3125 L 71.7285 -0.146484 C 71.7285 2.09961 70.8008 2.97852 68.5547 2.97852 L 54.541 2.97852 L 54.541 -70.3125 C 54.541 -72.5586 55.4199 -73.4863 57.666 -73.4863 Z M 15.0879 2.97852 C 12.8418 2.97852 11.9629 2.09961 11.9629 -0.146484 L 11.9629 -61.8652 C 11.9629 -64.1113 12.8418 -65.0391 15.0879 -65.0391 L 22.9492 -65.0391 C 25.1953 -65.0391 26.0742 -64.1113 26.0742 -61.8652 L 26.0742 2.97852 Z M 79.4922 0.341797 L 74.3164 -57.4707 C 74.1211 -59.7168 74.9512 -60.7422 77.1973 -60.9375 L 85.9863 -61.7188 C 88.2812 -61.9141 89.209 -61.084 89.4043 -58.8867 L 94.5801 -0.976562 C 94.7754 1.26953 93.9941 2.24609 91.6992 2.44141 L 82.9102 3.22266 C 80.6641 3.41797 79.6875 2.63672 79.4922 0.341797 Z M 31.3965 -52.2949 L 49.2188 -52.2949 C 51.4648 -52.2949 52.3438 -51.416 52.3438 -49.1699 L 52.3438 2.97852 L 28.2715 2.97852 L 28.2715 -49.1699 C 28.2715 -51.416 29.1504 -52.2949 31.3965 -52.2949 Z M 33.7891 -44.3848 L 46.8262 -44.3848 C 47.4609 -44.3848 47.9004 -44.873 47.9004 -45.459 C 47.9004 -45.9961 47.4609 -46.4844 46.8262 -46.4844 L 33.7891 -46.4844 C 33.1543 -46.4844 32.7148 -45.9961 32.7148 -45.459 C 32.7148 -44.873 33.1543 -44.3848 33.7891 -44.3848 Z M 33.7891 -2.83203 L 46.8262 -2.83203 C 47.4609 -2.83203 47.9004 -3.32031 47.9004 -3.90625 C 47.9004 -4.49219 47.4609 -4.93164 46.8262 -4.93164 L 33.7891 -4.93164 C 33.1543 -4.93164 32.7148 -4.49219 32.7148 -3.90625 C 32.7148 -3.32031 33.1543 -2.83203 33.7891 -2.83203 Z"/>
  </g>
 </g>
</svg>
